<svg xmlns="http://www.w3.org/2000/svg" fill="currentColor" viewBox="0 0 24 24"><path fill="#000" fill-opacity=".56" d="M11.639 2.009c-4.042.19-7.14 3.663-7.14 7.682v3.633L3.176 15.99a.66.66 0 0 0-.007.015c-.533 1.134.33 2.495 1.583 2.495H9c0 1.648 1.352 3 3 3s3-1.352 3-3h4.248c1.253 0 2.117-1.36 1.584-2.495l-.007-.015-1.325-2.666V9.5c0-4.253-3.569-7.693-7.861-7.491Zm.07 1.498a5.987 5.987 0 0 1 6.29 5.993v4c0 .116.027.23.079.334l1.396 2.81c.09.193-.014.356-.226.356H4.75c-.213 0-.316-.163-.226-.355v-.001l1.397-2.81A.75.75 0 0 0 6 13.5V9.69c0-3.25 2.49-6.031 5.709-6.183ZM10.499 18.5h3c0 .837-.662 1.5-1.5 1.5a1.49 1.49 0 0 1-1.5-1.5Z"/></svg>
