<svg width="1162" height="706" viewBox="0 0 1162 706" fill="none" xmlns="http://www.w3.org/2000/svg">
<path d="M284.134 621.497C262.476 621.497 242.624 610.775 227.159 594.565C211.668 578.348 201.979 556.575 199.848 533.249L199.541 529.846L196.161 529.88L195.72 529.88C173.163 529.888 151.205 514.937 133.883 487.803C116.378 460.357 104.808 422.451 101.312 381.075L101.229 380.036L94.2039 370.37C90.3001 365.001 84.1655 357.943 76 352.768C81.76 349.163 86.08 345.119 91.2906 339.31C93.1052 337.293 94.7616 335.123 96.2433 332.818L101.038 325.372L101.612 323.76C105.458 283.118 117.152 245.98 134.532 219.209C151.729 192.717 173.462 178.12 195.728 178.12L199.549 178.163L199.857 174.752C201.988 151.434 211.676 129.653 227.167 113.435C242.632 97.2255 262.892 86.5037 284.143 86.5037" stroke="white" stroke-opacity="0.22" stroke-width="2" stroke-miterlimit="10"/>
<mask id="path-2-inside-1_3001_17896" fill="white">
<path d="M283.639 85H879.21V622H283.639V85Z"/>
</mask>
<path d="M283.639 87H879.21V83H283.639V87ZM879.21 620H283.639V624H879.21V620Z" fill="white" fill-opacity="0.22" mask="url(#path-2-inside-1_3001_17896)"/>
<path d="M879.296 621.725C900.955 621.725 920.807 611.003 936.272 594.793C951.763 578.576 961.451 556.803 963.582 533.477L963.89 530.074L967.27 530.108L967.711 530.108C990.268 530.116 1012.23 515.165 1029.55 488.031C1047.05 460.585 1058.62 422.679 1062.12 381.303L1062.2 380.264L1069.23 370.598C1073.13 365.229 1079.27 358.171 1087.43 352.996C1081.67 349.391 1077.35 345.347 1072.14 339.538C1070.33 337.521 1068.67 335.351 1067.19 333.046L1062.39 325.6L1061.82 323.988C1057.97 283.346 1046.28 246.208 1028.9 219.437C1011.7 192.945 989.968 178.348 967.702 178.348L963.882 178.391L963.574 174.98C961.443 151.662 951.754 129.881 936.264 113.663C920.798 97.4536 900.538 86.7317 879.288 86.7317" stroke="white" stroke-opacity="0.22" stroke-width="2" stroke-miterlimit="10"/>
<g filter="url(#filter0_d_3001_17896)">
<path d="M250.867 574.036C265.28 588.929 283.78 598.781 303.964 598.781L303.972 107.219C284.168 107.219 265.288 117.07 250.875 131.964C236.439 146.865 227.41 166.878 225.424 188.303L225.137 191.437L221.577 191.398C200.827 191.398 180.573 204.81 164.547 229.151C148.351 253.749 137.452 287.872 133.868 325.214L133.333 326.696L128.865 333.538C127.484 335.655 125.941 337.649 124.25 339.503C119.394 344.84 115.368 348.555 110 351.867C117.61 356.622 123.327 363.107 126.965 368.041L133.511 376.923L133.589 377.877C136.847 415.894 147.629 450.723 163.942 475.941C180.085 500.872 200.548 514.609 221.569 514.602L221.98 514.602L225.13 514.571L225.417 517.697C227.402 539.129 236.431 559.135 250.867 574.036Z" fill="url(#paint0_linear_3001_17896)"/>
<path d="M303.964 598.781C283.78 598.781 265.28 588.929 250.867 574.036C236.431 559.135 227.402 539.129 225.417 517.697L225.13 514.571L221.98 514.602L221.569 514.602C200.548 514.609 180.085 500.872 163.942 475.941C147.629 450.723 136.847 415.894 133.589 377.877L133.511 376.923L126.965 368.041C123.327 363.107 117.61 356.622 110 351.867C115.368 348.555 119.394 344.84 124.25 339.503C125.941 337.649 127.484 335.655 128.865 333.538L133.333 326.696L133.868 325.214C137.452 287.872 148.351 253.749 164.547 229.151C180.573 204.81 200.827 191.398 221.577 191.398L225.137 191.437L225.424 188.303C227.41 166.878 236.439 146.865 250.875 131.964C265.288 117.07 284.168 107.219 303.972 107.219" stroke="#D3BD93" stroke-width="6.20561" stroke-miterlimit="10"/>
<mask id="path-7-inside-2_3001_17896" fill="white">
<path d="M301.972 104H860.598V602H301.972V104Z"/>
</mask>
<path d="M301.972 104H860.598V602H301.972V104Z" fill="url(#paint1_linear_3001_17896)"/>
<path d="M301.972 110.206H860.598V97.7944H301.972V110.206ZM860.598 595.794H301.972V608.206H860.598V595.794Z" fill="#D3BD93" mask="url(#path-7-inside-2_3001_17896)"/>
<path d="M911.703 573.826C897.29 588.72 878.79 598.571 858.606 598.571L858.599 107.01C878.402 107.01 897.283 116.861 911.695 131.754C926.131 146.656 935.16 166.669 937.146 188.094L937.433 191.227L940.994 191.189C961.744 191.189 981.997 204.6 998.023 228.942C1014.22 253.539 1025.12 287.663 1028.7 325.005L1029.24 326.486L1033.71 333.328C1035.09 335.446 1036.63 337.439 1038.32 339.293C1043.18 344.63 1047.2 348.346 1052.57 351.658C1044.96 356.413 1039.24 362.898 1035.61 367.831L1029.06 376.713L1028.98 377.667C1025.72 415.684 1014.94 450.513 998.628 475.731C982.486 500.662 962.023 514.4 941.001 514.392L940.59 514.392L937.441 514.361L937.154 517.487C935.168 538.92 926.139 558.925 911.703 573.826Z" fill="url(#paint2_linear_3001_17896)"/>
<path d="M858.606 598.99C878.79 598.99 897.29 589.139 911.703 574.245C926.139 559.344 935.168 539.339 937.154 517.906L937.441 514.78L940.59 514.811L941.001 514.811C962.023 514.819 982.486 501.081 998.628 476.15C1014.94 450.932 1025.72 416.103 1028.98 378.086L1029.06 377.132L1035.61 368.25C1039.24 363.317 1044.96 356.832 1052.57 352.077C1047.2 348.765 1043.18 345.049 1038.32 339.712C1036.63 337.858 1035.09 335.865 1033.71 333.747L1029.24 326.905L1028.7 325.424C1025.12 288.082 1014.22 253.958 998.023 229.361C981.997 205.019 961.744 191.608 940.994 191.608L937.433 191.646L937.146 188.513C935.16 167.088 926.131 147.075 911.695 132.173C897.283 117.28 878.402 107.429 858.599 107.429" stroke="#D3BD93" stroke-width="6.20561" stroke-miterlimit="10"/>
</g>
<defs>
<filter id="filter0_d_3001_17896" x="0.618164" y="0.5" width="1161.33" height="705.093" filterUnits="userSpaceOnUse" color-interpolation-filters="sRGB">
<feFlood flood-opacity="0" result="BackgroundImageFix"/>
<feColorMatrix in="SourceAlpha" type="matrix" values="0 0 0 0 0 0 0 0 0 0 0 0 0 0 0 0 0 0 127 0" result="hardAlpha"/>
<feOffset/>
<feGaussianBlur stdDeviation="51.75"/>
<feComposite in2="hardAlpha" operator="out"/>
<feColorMatrix type="matrix" values="0 0 0 0 1 0 0 0 0 1 0 0 0 0 1 0 0 0 0.28 0"/>
<feBlend mode="normal" in2="BackgroundImageFix" result="effect1_dropShadow_3001_17896"/>
<feBlend mode="normal" in="SourceGraphic" in2="effect1_dropShadow_3001_17896" result="shape"/>
</filter>
<linearGradient id="paint0_linear_3001_17896" x1="303.925" y1="107.576" x2="303.925" y2="598.594" gradientUnits="userSpaceOnUse">
<stop stop-color="white"/>
<stop offset="1" stop-color="#FFF2D8"/>
</linearGradient>
<linearGradient id="paint1_linear_3001_17896" x1="581.285" y1="104" x2="581.285" y2="602" gradientUnits="userSpaceOnUse">
<stop stop-color="white"/>
<stop offset="1" stop-color="#FFF2D8"/>
</linearGradient>
<linearGradient id="paint2_linear_3001_17896" x1="858.963" y1="107.009" x2="858.963" y2="598.804" gradientUnits="userSpaceOnUse">
<stop stop-color="white"/>
<stop offset="1" stop-color="#FFF2D8"/>
</linearGradient>
</defs>
</svg>
