<svg xmlns="http://www.w3.org/2000/svg" viewBox="0 0 18 18"><path fill="currentColor" d="M3.208.5A2.301 2.301 0 0 0 .917 2.792v1.25c0 .654.28 1.246.725 1.665a2.283 2.283 0 0 0-.725 1.668v1.25c0 .657.279 1.248.723 1.667a2.283 2.283 0 0 0-.723 1.666v1.25A2.294 2.294 0 0 0 3.208 15.5h4.815a5.387 5.387 0 0 1-.592-1.25H3.208a1.043 1.043 0 0 1-1.042-1.042v-1.25c0-.574.468-1.041 1.042-1.041h4.223c.144-.445.345-.864.593-1.25H3.208a1.043 1.043 0 0 1-1.042-1.042v-1.25c0-.574.468-1.042 1.042-1.042h9.584a1.04 1.04 0 0 1 1.036.983c.442.104.863.26 1.255.465v-.406c0-.658-.28-1.25-.726-1.668.445-.42.726-1.011.726-1.665v-1.25A2.301 2.301 0 0 0 12.791.5H3.208Zm0 1.25h9.584c.582 0 1.041.46 1.041 1.042v1.25c0 .582-.459 1.041-1.042 1.041H3.208c-.582 0-1.042-.459-1.042-1.041v-1.25c0-.583.46-1.042 1.042-1.042ZM12.583 8a4.583 4.583 0 1 0 0 9.167 4.583 4.583 0 0 0 0-9.167Zm0 1.667c.107 0 .213.04.295.122l2.083 2.083a.416.416 0 1 1-.59.59L13 11.088V15.5a.417.417 0 1 1-.834 0v-4.41l-1.372 1.371a.416.416 0 1 1-.589-.589L12.29 9.79a.415.415 0 0 1 .294-.122Z"/></svg>