<svg width="16" height="16" viewBox="0 0 16 16" fill="none" xmlns="http://www.w3.org/2000/svg">
<path d="M14.6667 3.1133V11.16C14.6667 11.8 14.1467 12.4 13.5067 12.48L13.2867 12.5066C11.8334 12.7 9.59335 13.44 8.31335 14.1466C8.14002 14.2466 7.85338 14.2466 7.67338 14.1466L7.64669 14.1333C6.36669 13.4333 4.13339 12.7 2.68673 12.5066L2.49337 12.48C1.85337 12.4 1.33337 11.8 1.33337 11.16V3.10662C1.33337 2.31329 1.98002 1.7133 2.77336 1.77996C4.17336 1.8933 6.29335 2.59998 7.48002 3.33998L7.64669 3.43996C7.84002 3.55996 8.16006 3.55996 8.35339 3.43996L8.46672 3.36663C8.88672 3.10663 9.42004 2.84663 10 2.6133V5.33331L11.3334 4.44663L12.6667 5.33331V1.85333C12.8467 1.81999 13.0201 1.79997 13.1801 1.78664H13.2201C14.0134 1.71997 14.6667 2.3133 14.6667 3.1133Z" stroke="#1F95EB" stroke-linecap="round" stroke-linejoin="round"/>
<path d="M8 3.66003V13.66" stroke="#1F95EB" stroke-linecap="round" stroke-linejoin="round"/>
<path d="M12.6667 1.85339V5.33337L11.3333 4.4467L10 5.33337V2.61336C10.8733 2.2667 11.8467 1.98673 12.6667 1.85339Z" stroke="#1F95EB" stroke-linecap="round" stroke-linejoin="round"/>
</svg>
