<svg xmlns="http://www.w3.org/2000/svg" fill="none" viewBox="0 0 16 16"><path fill="currentColor" d="M3.208.5A2.718 2.718 0 0 0 .5 3.208v9.584A2.718 2.718 0 0 0 3.208 15.5h9.584a2.718 2.718 0 0 0 2.708-2.708V3.208A2.718 2.718 0 0 0 12.792.5H3.208Zm0 1.25h9.584a1.45 1.45 0 0 1 1.458 1.458v.625H1.75v-.625A1.45 1.45 0 0 1 3.208 1.75ZM1.75 5.083h12.5v7.709a1.45 1.45 0 0 1-1.458 1.458H3.208a1.45 1.45 0 0 1-1.458-1.458V5.083ZM4.458 6.75a1.042 1.042 0 1 0 0 2.083 1.042 1.042 0 0 0 0-2.083ZM8 6.75a1.042 1.042 0 1 0 0 2.083A1.042 1.042 0 0 0 8 6.75Zm3.542 0a1.042 1.042 0 1 0 0 2.083 1.042 1.042 0 0 0 0-2.083ZM4.458 10.5a1.041 1.041 0 1 0 0 2.083 1.041 1.041 0 0 0 0-2.083ZM8 10.5a1.041 1.041 0 1 0 0 2.083A1.041 1.041 0 0 0 8 10.5Z"/></svg>
