<svg xmlns="http://www.w3.org/2000/svg" fill="currentColor" viewBox="0 0 24 24"><path fill="currentColor" d="M12 2c-.34 0-.677.017-1.009.05a.75.75 0 1 0 .152 1.493 8.522 8.522 0 0 1 1.714 0 .75.75 0 1 0 .152-1.492 10.034 10.034 0 0 0-.953-.05h-.003A.746.746 0 0 0 12 2Zm-3.818.848-.347.058-.001.001-.038.018-.454.224-.036.02-.44.248-.035.021-.425.272-.033.023-.186.133-.311.567.244.597.617.187.325-.133.166-.12.403-.256.009-.006.38-.214.442-.22-.008-.015.397-.452-.107-.636-.562-.317Zm7.374.066-.413.495.123.633.27.226.418.206.01.005.41.232.402.258.007.004.153.111.635.114.49-.42-.02-.646-.229-.266-.187-.135-.033-.022-.425-.272-.035-.021-.44-.249-.036-.019-.454-.225-.646-.009Zm4.012 2.962-.597.244-.188.617.133.325.12.167.256.402.006.009.221.394.006.01.206.418.016-.008.452.398.636-.109.317-.561-.058-.347-.001-.001-.018-.038-.224-.454-.02-.036-.248-.44-.022-.035-.271-.425-.023-.033-.133-.186-.566-.311Zm-14.79.063-.646.02-.266.228-.135.188-.022.033-.272.425-.021.035-.25.44-.018.036-.224.454-.01.645.495.414.633-.124.225-.27.207-.417.005-.01.222-.394.006-.01.257-.4.12-.169.114-.634-.42-.49ZM12 9.5c-.77 0-1.444.316-1.873.799A2.547 2.547 0 0 0 9.5 12c0 .604.198 1.218.627 1.701.429.483 1.102.799 1.873.799.77 0 1.444-.316 1.873-.799.43-.483.627-1.097.627-1.701 0-.604-.198-1.218-.627-1.701C13.443 9.816 12.77 9.5 12 9.5Zm-9.213.807a.75.75 0 0 0-.736.684 10.03 10.03 0 0 0 0 2.018.75.75 0 1 0 1.492-.152 8.522 8.522 0 0 1 0-1.714.75.75 0 0 0-.756-.836Zm18.403 0a.75.75 0 0 0-.733.836 8.52 8.52 0 0 1 0 1.714.752.752 0 0 0 .669.837.751.751 0 0 0 .823-.685c.032-.314.048-.632.05-.952v-.004a10.03 10.03 0 0 0-.05-1.062.75.75 0 0 0-.759-.684ZM12 11c.396 0 .598.121.752.295.154.173.248.434.248.705 0 .27-.094.532-.248.705-.154.174-.356.295-.752.295s-.598-.121-.752-.295A1.08 1.08 0 0 1 11 12c0-.27.094-.532.248-.705.154-.174.356-.295.752-.295Zm8.59 4.143-.632.124-.226.27-.206.417-.006.01-.221.394-.006.01-.257.4-.12.168-.114.635.42.49.646-.02.266-.229.134-.187.023-.033.271-.425.022-.035.249-.44.019-.036.224-.454.01-.645-.495-.414Zm-16.79.005-.635.109-.317.561.058.347.001.001.018.038.224.454.02.036.248.44.021.035.272.425.022.033.134.187.566.31.597-.244.188-.617-.133-.326-.12-.166-.256-.402-.006-.009-.222-.394-.005-.01-.207-.418-.015.008-.452-.398Zm13.463 3.635-.326.133-.166.12-.402.256-.009.006-.38.214-.442.22.008.015-.398.452.108.636.562.317.347-.058v-.001l.039-.018.454-.224.036-.02.44-.248.035-.021.425-.272.033-.023.185-.133.312-.567-.244-.597-.617-.187Zm-10.834.019-.49.42.02.646.228.266.188.134.033.023.425.271.035.022.44.249.036.019.454.225.645.009.414-.495-.124-.633-.27-.226-.417-.206-.01-.006-.411-.231-.401-.258-.007-.004-.154-.111-.634-.114Zm4.638 1.65a.75.75 0 0 0-.076 1.497 10.019 10.019 0 0 0 2.018 0 .75.75 0 1 0-.152-1.492 8.522 8.522 0 0 1-1.714 0 .757.757 0 0 0-.076-.005Z"/></svg>
