<svg xmlns="http://www.w3.org/2000/svg" fill="none" viewBox="0 0 18 18"><path fill="currentColor" d="M9 .668C4.405.668.667 4.406.667 9.001c0 4.595 3.738 8.334 8.333 8.334 4.595 0 8.333-3.739 8.333-8.334S13.595.668 9 .668Zm0 1.25a7.074 7.074 0 0 1 7.083 7.083A7.074 7.074 0 0 1 9 16.085 7.074 7.074 0 0 1 1.917 9 7.074 7.074 0 0 1 9 1.918Zm-.635 2.074a.625.625 0 0 0-.615.634V9.21c0 .165.066.324.183.442l2.084 2.083a.627.627 0 0 0 1.03-.197.625.625 0 0 0-.147-.687L9 8.951V4.626a.625.625 0 0 0-.635-.634Z"/></svg>
