<svg xmlns="http://www.w3.org/2000/svg" fill="none" viewBox="0 0 21 21"><path fill="currentColor" d="M8.5 0c-2.753 0-5 2.247-5 5s2.247 5 5 5c2.752 0 5-2.247 5-5s-2.248-5-5-5Zm0 1.5C10.442 1.5 12 3.058 12 5s-1.558 3.5-3.5 3.5A3.489 3.489 0 0 1 5 5c0-1.942 1.558-3.5 3.5-3.5Zm7 8.5a5.5 5.5 0 1 0 0 11 5.5 5.5 0 0 0 0-11ZM2.75 12C1.51 12 .5 13.01.5 14.25v.6c0 2.89 3.515 5.15 8 5.15.745 0 1.465-.065 2.145-.185A6.516 6.516 0 0 1 9.7 18.44c-.385.04-.785.06-1.2.06-4.015 0-6.5-1.895-6.5-3.65v-.6c0-.415.335-.75.75-.75h6.565c.17-.535.41-1.035.71-1.5H2.75Zm12.75 0c.24 0 .454.153.532.38L16.59 14h1.849a.563.563 0 0 1 .34 1.01l-1.498 1.136.507 1.623a.562.562 0 0 1-.874.619L15.5 17.33l-1.413 1.058a.562.562 0 0 1-.874-.619l.507-1.621-1.497-1.137a.562.562 0 0 1 .34-1.011h1.848l.557-1.62A.563.563 0 0 1 15.5 12Z"/></svg>
