<svg xmlns="http://www.w3.org/2000/svg" fill="none" viewBox="0 0 18 18"><path fill="currentColor" d="M3.25 0C1.74 0 .5 1.24.5 2.75v1.5c0 .793.354 1.496.897 2C.854 6.754.5 7.457.5 8.25v1.5c0 .793.354 1.496.897 2-.543.504-.897 1.207-.897 2v1.5C.5 16.76 1.74 18 3.25 18h11.5c1.51 0 2.75-1.24 2.75-2.75v-1.5c0-.793-.354-1.496-.898-2 .544-.504.898-1.207.898-2v-1.5c0-.793-.354-1.496-.898-2 .544-.504.898-1.207.898-2v-1.5C17.5 1.24 16.26 0 14.75 0H3.25Zm0 1.5h11.5c.69 0 1.25.56 1.25 1.25v1.5c0 .69-.56 1.25-1.25 1.25H3.25C2.56 5.5 2 4.94 2 4.25v-1.5c0-.69.56-1.25 1.25-1.25Zm0 5.5h11.5c.69 0 1.25.56 1.25 1.25v1.5c0 .69-.56 1.25-1.25 1.25H3.25C2.56 11 2 10.44 2 9.75v-1.5C2 7.56 2.56 7 3.25 7Zm0 5.5h11.5c.69 0 1.25.56 1.25 1.25v1.5c0 .69-.56 1.25-1.25 1.25H3.25c-.69 0-1.25-.56-1.25-1.25v-1.5c0-.69.56-1.25 1.25-1.25Z"/></svg>
