<svg width="547" height="423" viewBox="0 0 547 423" fill="none" xmlns="http://www.w3.org/2000/svg">
<g clip-path="url(#clip0_9004_21644)">
<path d="M93.881 311.47C93.881 311.47 123.147 388.6 197.35 413.783C271.564 438.966 350.659 405.398 415.372 380.148C480.074 354.897 514.102 290.263 499.674 224.128C485.258 157.993 430.75 162.686 379.925 103.895C329.099 45.1173 323.305 20.5703 252.844 3.20473C182.394 -14.1608 105.282 54.2058 85.9985 151.055C66.7147 247.904 93.881 311.47 93.881 311.47Z" fill="#6BCC70"/>
<path opacity="0.8" d="M93.881 311.47C93.881 311.47 123.147 388.6 197.35 413.783C271.564 438.966 350.659 405.398 415.372 380.148C480.074 354.897 514.102 290.263 499.674 224.128C485.258 157.993 430.75 162.686 379.925 103.895C329.099 45.1173 323.305 20.5703 252.844 3.20473C182.394 -14.1608 105.282 54.2058 85.9985 151.055C66.7147 247.904 93.881 311.47 93.881 311.47Z" fill="white"/>
</g>
<g clip-path="url(#clip1_9004_21644)">
<path d="M328.936 133.148C328.818 119.759 324.068 108.331 317.781 103.367L317.757 100.635L300.397 100.852C290.626 100.973 282.837 115.688 283.002 133.716C283.166 151.745 291.224 166.27 300.995 166.148L318.355 165.932L318.332 163.2C324.537 158.088 329.065 146.538 328.936 133.148Z" fill="#263238" stroke="#263238" stroke-width="1.05" stroke-linecap="round" stroke-linejoin="round"/>
<path d="M336.795 133.04C336.666 118.974 331.962 106.965 325.346 101.744L325.323 98.877L317.886 98.9716C307.611 99.0933 299.435 114.552 299.611 133.5C299.787 152.448 308.256 167.703 318.52 167.582L325.956 167.487L325.933 164.62C332.455 159.251 336.935 147.119 336.806 133.053L336.795 133.04Z" fill="white" stroke="#263238" stroke-width="1.05" stroke-linecap="round" stroke-linejoin="round"/>
<path d="M344.231 132.959C344.407 151.907 336.22 167.366 325.956 167.487C315.693 167.609 307.224 152.353 307.048 133.405C306.872 114.457 315.059 98.9989 325.323 98.8772C335.586 98.7555 344.055 114.011 344.231 132.959Z" fill="#6BCC70" stroke="#263238" stroke-width="1.05" stroke-linecap="round" stroke-linejoin="round"/>
<path d="M339.973 132.364C340.055 141.344 336.173 148.675 331.305 148.729C326.437 148.783 322.425 141.561 322.343 132.58C322.261 123.6 326.144 116.27 331.011 116.216C335.879 116.162 339.891 123.384 339.973 132.364Z" fill="#263238" stroke="#263238" stroke-width="1.05" stroke-linecap="round" stroke-linejoin="round"/>
<path d="M332.854 132.973C332.854 132.973 350.049 139.343 360.501 154.22C370.94 169.097 377.697 166.973 390.599 162.01C403.502 157.046 408.417 139.343 426.235 154.22C444.052 169.097 447.735 174.764 462.48 166.257C477.224 157.763 485.212 137.219 498.725 144.293C512.238 151.38 506.091 187.504 507.323 205.207C508.555 222.911 506.713 266.825 509.774 272.492C512.848 278.159 544.178 273.912 544.178 273.912" stroke="#263238" stroke-width="3.14" stroke-linecap="round" stroke-linejoin="round"/>
<path d="M212.446 133.689C212.446 133.689 198.312 131.566 192.177 142.9C186.031 154.233 174.36 193.901 152.859 200.271C131.358 206.641 125.212 155.653 112.321 157.06C100.028 158.412 91.4298 157.06 84.0635 172.64C80.1223 180.985 60.4162 272.1 51.1027 273.033C21.4379 276.008 2.35352 274.074 2.35352 274.074" stroke="#263238" stroke-width="3.14" stroke-linecap="round" stroke-linejoin="round"/>
<path d="M246.299 134.244C245.349 122.437 240.446 112.74 234.581 108.885L234.382 106.478L219.074 108.114C210.453 109.034 204.506 122.68 205.784 138.585C207.063 154.49 215.086 166.635 223.707 165.716L239.015 164.079L238.815 161.672C243.965 156.641 247.237 146.064 246.287 134.257L246.299 134.244Z" fill="#263238" stroke="#263238" stroke-width="1.05" stroke-linecap="round" stroke-linejoin="round"/>
<path d="M253.232 133.5C252.235 121.098 247.331 110.887 241.162 106.83L240.962 104.301L234.405 105.004C225.35 105.978 219.098 120.3 220.435 137.017C221.784 153.719 230.218 166.487 239.273 165.513L245.83 164.81L245.631 162.281C251.05 156.992 254.24 145.916 253.243 133.514L253.232 133.5Z" fill="white" stroke="#263238" stroke-width="1.05" stroke-linecap="round" stroke-linejoin="round"/>
<path d="M259.788 132.797C261.137 149.5 254.885 163.836 245.818 164.81C236.763 165.783 228.329 153.016 226.98 136.313C225.631 119.611 231.883 105.275 240.95 104.301C250.006 103.327 258.439 116.094 259.788 132.797Z" fill="white" stroke="#263238" stroke-width="1.05" stroke-linecap="round" stroke-linejoin="round"/>
<path d="M266.861 123.032L241.419 125.751C239.918 125.913 238.592 124.642 238.452 122.91C238.311 121.179 239.413 119.651 240.915 119.489L266.357 116.77C267.858 116.608 269.184 117.879 269.324 119.61C269.465 121.342 268.363 122.87 266.861 123.032Z" fill="#6BCC70" stroke="#263238" stroke-width="1.05" stroke-linecap="round" stroke-linejoin="round"/>
<path d="M268.726 146.281L243.284 148.999C241.783 149.161 240.458 147.89 240.317 146.159C240.176 144.428 241.279 142.9 242.78 142.737L268.222 140.019C269.723 139.857 271.049 141.128 271.19 142.859C271.33 144.59 270.228 146.118 268.726 146.281Z" fill="#6BCC70" stroke="#263238" stroke-width="1.05" stroke-linecap="round" stroke-linejoin="round"/>
</g>
<path d="M339.521 379.191V412.255H212.987V379.191H339.521Z" fill="white" stroke="black" stroke-width="0.4"/>
<path d="M356.61 206.072C357.948 206.072 358.984 207.317 358.984 208.789V376.875C358.984 378.346 357.948 379.591 356.61 379.591H198.703C197.366 379.591 196.329 378.346 196.329 376.875V208.789C196.329 207.317 197.366 206.072 198.703 206.072H356.61Z" fill="white" stroke="black" stroke-width="0.4"/>
<path d="M349.156 218.981H204.994V371.148H349.156V218.981Z" fill="#263238"/>
<path d="M342.453 274.86H208.563V313.31H342.453V274.86Z" fill="#455A64"/>
<path d="M240.878 282.775H214.513V287.474H240.878V282.775Z" fill="#263238"/>
<path d="M240.878 290.854H214.513V295.552H240.878V290.854Z" fill="#263238"/>
<path d="M240.878 299.208H214.513V303.906H240.878V299.208Z" fill="#263238"/>
<path d="M251.298 285.612C251.298 286.58 250.623 287.362 249.787 287.362C248.951 287.362 248.275 286.58 248.275 285.612C248.275 284.644 248.951 283.862 249.787 283.862C250.623 283.862 251.298 284.644 251.298 285.612Z" fill="#263238"/>
<path d="M257.968 285.612C257.968 286.58 257.293 287.362 256.457 287.362C255.621 287.362 254.945 286.58 254.945 285.612C254.945 284.644 255.621 283.862 256.457 283.862C257.293 283.862 257.968 284.644 257.968 285.612Z" fill="#263238"/>
<path d="M264.644 285.612C264.644 286.58 263.969 287.362 263.133 287.362C262.296 287.362 261.621 286.58 261.621 285.612C261.621 284.644 262.296 283.862 263.133 283.862C263.969 283.862 264.644 284.644 264.644 285.612Z" fill="#263238"/>
<path d="M271.315 285.612C271.315 286.58 270.64 287.362 269.804 287.362C268.967 287.362 268.292 286.58 268.292 285.612C268.292 284.644 268.967 283.862 269.804 283.862C270.64 283.862 271.315 284.644 271.315 285.612Z" fill="#263238"/>
<path d="M323.029 285.612C323.029 286.58 322.354 287.362 321.517 287.362C320.681 287.362 320.006 286.58 320.006 285.612C320.006 284.644 320.681 283.862 321.517 283.862C322.354 283.862 323.029 284.644 323.029 285.612Z" fill="#263238"/>
<path d="M329.834 285.612C329.834 286.58 329.158 287.362 328.322 287.362C327.486 287.362 326.811 286.58 326.811 285.612C326.811 284.644 327.486 283.862 328.322 283.862C329.158 283.862 329.834 284.644 329.834 285.612Z" fill="#263238"/>
<path d="M277.992 285.612C277.992 286.58 277.316 287.362 276.48 287.362C275.644 287.362 274.969 286.58 274.969 285.612C274.969 284.644 275.644 283.862 276.48 283.862C277.316 283.862 277.992 284.644 277.992 285.612Z" fill="#263238"/>
<path d="M310.763 285.612C310.763 286.58 310.088 287.362 309.252 287.362C308.416 287.362 307.74 286.58 307.74 285.612C307.74 284.644 308.416 283.862 309.252 283.862C310.088 283.862 310.763 284.644 310.763 285.612Z" fill="#263238"/>
<path d="M284.668 285.612C284.668 286.58 283.992 287.362 283.156 287.362C282.32 287.362 281.645 286.58 281.645 285.612C281.645 284.644 282.32 283.862 283.156 283.862C283.992 283.862 284.668 284.644 284.668 285.612Z" fill="black"/>
<path d="M291.338 285.612C291.338 286.58 290.663 287.362 289.827 287.362C288.991 287.362 288.315 286.58 288.315 285.612C288.315 284.644 288.991 283.862 289.827 283.862C290.663 283.862 291.338 284.644 291.338 285.612Z" fill="black"/>
<path d="M304.878 285.612C304.878 286.58 304.202 287.362 303.366 287.362C302.53 287.362 301.854 286.58 301.854 285.612C301.854 284.644 302.53 283.862 303.366 283.862C304.202 283.862 304.878 284.644 304.878 285.612Z" fill="black"/>
<path d="M335.372 285.612C335.372 286.58 334.696 287.362 333.86 287.362C333.024 287.362 332.349 286.58 332.349 285.612C332.349 284.644 333.024 283.862 333.86 283.862C334.696 283.862 335.372 284.644 335.372 285.612Z" fill="black"/>
<path d="M298.015 285.612C298.015 286.58 297.34 287.362 296.504 287.362C295.668 287.362 294.992 286.58 294.992 285.612C294.992 284.644 295.668 283.862 296.504 283.862C297.34 283.862 298.015 284.644 298.015 285.612Z" fill="#6BCC70"/>
<path d="M317.606 285.612C317.606 286.58 316.931 287.362 316.095 287.362C315.258 287.362 314.583 286.58 314.583 285.612C314.583 284.644 315.258 283.862 316.095 283.862C316.931 283.862 317.606 284.644 317.606 285.612Z" fill="#6BCC70"/>
<path d="M332.349 294.055C332.349 293.087 333.024 292.306 333.86 292.306C334.696 292.306 335.372 293.087 335.372 294.055C335.372 295.023 334.696 295.805 333.86 295.805C333.024 295.805 332.349 295.023 332.349 294.055Z" fill="#263238"/>
<path d="M325.673 294.055C325.673 293.087 326.348 292.306 327.184 292.306C328.021 292.306 328.696 293.087 328.696 294.055C328.696 295.023 328.021 295.805 327.184 295.805C326.348 295.805 325.673 295.023 325.673 294.055Z" fill="#263238"/>
<path d="M319.003 294.055C319.003 293.087 319.678 292.306 320.514 292.306C321.351 292.306 322.026 293.087 322.026 294.055C322.026 295.023 321.351 295.805 320.514 295.805C319.678 295.805 319.003 295.023 319.003 294.055Z" fill="#263238"/>
<path d="M312.325 294.055C312.325 293.087 313.001 292.306 313.837 292.306C314.673 292.306 315.348 293.087 315.348 294.055C315.348 295.023 314.673 295.805 313.837 295.805C313.001 295.805 312.325 295.023 312.325 294.055Z" fill="#263238"/>
<path d="M260.612 294.055C260.612 293.087 261.288 292.306 262.124 292.306C262.96 292.306 263.635 293.087 263.635 294.055C263.635 295.023 262.96 295.805 262.124 295.805C261.288 295.805 260.612 295.023 260.612 294.055Z" fill="#263238"/>
<path d="M253.807 294.055C253.807 293.087 254.482 292.306 255.318 292.306C256.154 292.306 256.83 293.087 256.83 294.055C256.83 295.023 256.154 295.805 255.318 295.805C254.482 295.805 253.807 295.023 253.807 294.055Z" fill="#263238"/>
<path d="M305.655 294.055C305.655 293.087 306.331 292.306 307.167 292.306C308.003 292.306 308.678 293.087 308.678 294.055C308.678 295.023 308.003 295.805 307.167 295.805C306.331 295.805 305.655 295.023 305.655 294.055Z" fill="#263238"/>
<path d="M272.884 294.055C272.884 293.087 273.559 292.306 274.395 292.306C275.231 292.306 275.907 293.087 275.907 294.055C275.907 295.023 275.231 295.805 274.395 295.805C273.559 295.805 272.884 295.023 272.884 294.055Z" fill="#263238"/>
<path d="M298.979 294.055C298.979 293.087 299.655 292.306 300.491 292.306C301.327 292.306 302.003 293.087 302.003 294.055C302.003 295.023 301.327 295.805 300.491 295.805C299.655 295.805 298.979 295.023 298.979 294.055Z" fill="black"/>
<path d="M292.31 294.055C292.31 293.087 292.985 292.306 293.821 292.306C294.657 292.306 295.333 293.087 295.333 294.055C295.333 295.023 294.657 295.805 293.821 295.805C292.985 295.805 292.31 295.023 292.31 294.055Z" fill="black"/>
<path d="M278.77 294.055C278.77 293.087 279.445 292.306 280.281 292.306C281.117 292.306 281.793 293.087 281.793 294.055C281.793 295.023 281.117 295.805 280.281 295.805C279.445 295.805 278.77 295.023 278.77 294.055Z" fill="black"/>
<path d="M248.275 294.055C248.275 293.087 248.951 292.306 249.787 292.306C250.623 292.306 251.298 293.087 251.298 294.055C251.298 295.023 250.623 295.805 249.787 295.805C248.951 295.805 248.275 295.023 248.275 294.055Z" fill="black"/>
<path d="M285.633 294.055C285.633 293.087 286.308 292.306 287.144 292.306C287.981 292.306 288.656 293.087 288.656 294.055C288.656 295.023 287.981 295.805 287.144 295.805C286.308 295.805 285.633 295.023 285.633 294.055Z" fill="#6BCC70"/>
<path d="M266.53 294.055C266.53 293.087 267.206 292.306 268.042 292.306C268.878 292.306 269.553 293.087 269.553 294.055C269.553 295.023 268.878 295.805 268.042 295.805C267.206 295.805 266.53 295.023 266.53 294.055Z" fill="#6BCC70"/>
<path d="M251.298 301.553C251.298 302.521 250.623 303.303 249.787 303.303C248.951 303.303 248.275 302.521 248.275 301.553C248.275 300.586 248.951 299.804 249.787 299.804C250.623 299.804 251.298 300.586 251.298 301.553Z" fill="#263238"/>
<path d="M256.457 303.303C257.292 303.303 257.968 302.52 257.968 301.553C257.968 300.587 257.292 299.804 256.457 299.804C255.622 299.804 254.945 300.587 254.945 301.553C254.945 302.52 255.622 303.303 256.457 303.303Z" fill="#263238"/>
<path d="M263.133 303.303C263.967 303.303 264.644 302.52 264.644 301.553C264.644 300.587 263.967 299.804 263.133 299.804C262.298 299.804 261.621 300.587 261.621 301.553C261.621 302.52 262.298 303.303 263.133 303.303Z" fill="#263238"/>
<path d="M271.315 301.553C271.315 302.521 270.64 303.303 269.804 303.303C268.967 303.303 268.292 302.521 268.292 301.553C268.292 300.586 268.967 299.804 269.804 299.804C270.64 299.804 271.315 300.586 271.315 301.553Z" fill="#263238"/>
<path d="M321.517 303.303C322.352 303.303 323.029 302.52 323.029 301.553C323.029 300.587 322.352 299.804 321.517 299.804C320.683 299.804 320.006 300.587 320.006 301.553C320.006 302.52 320.683 303.303 321.517 303.303Z" fill="#263238"/>
<path d="M328.322 303.303C329.157 303.303 329.834 302.52 329.834 301.553C329.834 300.587 329.157 299.804 328.322 299.804C327.487 299.804 326.811 300.587 326.811 301.553C326.811 302.52 327.487 303.303 328.322 303.303Z" fill="#263238"/>
<path d="M277.992 301.553C277.992 302.521 277.316 303.303 276.48 303.303C275.644 303.303 274.969 302.521 274.969 301.553C274.969 300.586 275.644 299.804 276.48 299.804C277.316 299.804 277.992 300.586 277.992 301.553Z" fill="#263238"/>
<path d="M310.763 301.553C310.763 302.521 310.088 303.303 309.252 303.303C308.416 303.303 307.74 302.521 307.74 301.553C307.74 300.586 308.416 299.804 309.252 299.804C310.088 299.804 310.763 300.586 310.763 301.553Z" fill="#263238"/>
<path d="M283.15 303.303C283.985 303.303 284.662 302.52 284.662 301.553C284.662 300.587 283.985 299.804 283.15 299.804C282.315 299.804 281.639 300.587 281.639 301.553C281.639 302.52 282.315 303.303 283.15 303.303Z" fill="black"/>
<path d="M291.338 301.553C291.338 302.521 290.663 303.303 289.827 303.303C288.991 303.303 288.315 302.521 288.315 301.553C288.315 300.586 288.991 299.804 289.827 299.804C290.663 299.804 291.338 300.586 291.338 301.553Z" fill="black"/>
<path d="M304.878 301.553C304.878 302.521 304.202 303.303 303.366 303.303C302.53 303.303 301.854 302.521 301.854 301.553C301.854 300.586 302.53 299.804 303.366 299.804C304.202 299.804 304.878 300.586 304.878 301.553Z" fill="black"/>
<path d="M335.372 301.553C335.372 302.521 334.696 303.303 333.86 303.303C333.024 303.303 332.349 302.521 332.349 301.553C332.349 300.586 333.024 299.804 333.86 299.804C334.696 299.804 335.372 300.586 335.372 301.553Z" fill="black"/>
<path d="M298.015 301.553C298.015 302.521 297.34 303.303 296.504 303.303C295.668 303.303 294.992 302.521 294.992 301.553C294.992 300.586 295.668 299.804 296.504 299.804C297.34 299.804 298.015 300.586 298.015 301.553Z" fill="#6BCC70"/>
<path d="M315.605 303.303C316.44 303.303 317.117 302.52 317.117 301.553C317.117 300.587 316.44 299.804 315.605 299.804C314.77 299.804 314.094 300.587 314.094 301.553C314.094 302.52 314.77 303.303 315.605 303.303Z" fill="#6BCC70"/>
<path d="M342.453 322.312H208.563V360.761H342.453V322.312Z" fill="#455A64"/>
<path d="M250.963 332.683C250.963 333.651 250.288 334.433 249.452 334.433C248.616 334.433 247.94 333.651 247.94 332.683C247.94 331.715 248.616 330.934 249.452 330.934C250.288 330.934 250.963 331.715 250.963 332.683Z" fill="#263238"/>
<path d="M257.639 332.683C257.639 333.651 256.964 334.433 256.128 334.433C255.292 334.433 254.616 333.651 254.616 332.683C254.616 331.715 255.292 330.934 256.128 330.934C256.964 330.934 257.639 331.715 257.639 332.683Z" fill="#263238"/>
<path d="M264.309 332.683C264.309 333.651 263.634 334.433 262.798 334.433C261.961 334.433 261.286 333.651 261.286 332.683C261.286 331.715 261.961 330.934 262.798 330.934C263.634 330.934 264.309 331.715 264.309 332.683Z" fill="#263238"/>
<path d="M270.987 332.683C270.987 333.651 270.312 334.433 269.475 334.433C268.639 334.433 267.964 333.651 267.964 332.683C267.964 331.715 268.639 330.934 269.475 330.934C270.312 330.934 270.987 331.715 270.987 332.683Z" fill="#263238"/>
<path d="M322.7 332.683C322.7 333.651 322.024 334.433 321.188 334.433C320.352 334.433 319.677 333.651 319.677 332.683C319.677 331.715 320.352 330.934 321.188 330.934C322.024 330.934 322.7 331.715 322.7 332.683Z" fill="#263238"/>
<path d="M329.506 332.683C329.506 333.651 328.83 334.433 327.994 334.433C327.158 334.433 326.482 333.651 326.482 332.683C326.482 331.715 327.158 330.934 327.994 330.934C328.83 330.934 329.506 331.715 329.506 332.683Z" fill="#263238"/>
<path d="M277.657 332.683C277.657 333.651 276.981 334.433 276.145 334.433C275.309 334.433 274.634 333.651 274.634 332.683C274.634 331.715 275.309 330.934 276.145 330.934C276.981 330.934 277.657 331.715 277.657 332.683Z" fill="#263238"/>
<path d="M310.434 332.683C310.434 333.651 309.759 334.433 308.923 334.433C308.087 334.433 307.411 333.651 307.411 332.683C307.411 331.715 308.087 330.934 308.923 330.934C309.759 330.934 310.434 331.715 310.434 332.683Z" fill="#263238"/>
<path d="M284.333 332.683C284.333 333.651 283.657 334.433 282.821 334.433C281.985 334.433 281.31 333.651 281.31 332.683C281.31 331.715 281.985 330.934 282.821 330.934C283.657 330.934 284.333 331.715 284.333 332.683Z" fill="black"/>
<path d="M291.004 332.683C291.004 333.651 290.328 334.433 289.492 334.433C288.656 334.433 287.98 333.651 287.98 332.683C287.98 331.715 288.656 330.934 289.492 330.934C290.328 330.934 291.004 331.715 291.004 332.683Z" fill="black"/>
<path d="M304.548 332.683C304.548 333.651 303.873 334.433 303.037 334.433C302.201 334.433 301.525 333.651 301.525 332.683C301.525 331.715 302.201 330.934 303.037 330.934C303.873 330.934 304.548 331.715 304.548 332.683Z" fill="black"/>
<path d="M335.044 332.683C335.044 333.651 334.368 334.433 333.532 334.433C332.696 334.433 332.021 333.651 332.021 332.683C332.021 331.715 332.696 330.934 333.532 330.934C334.368 330.934 335.044 331.715 335.044 332.683Z" fill="black"/>
<path d="M297.68 332.683C297.68 333.651 297.005 334.433 296.169 334.433C295.333 334.433 294.657 333.651 294.657 332.683C294.657 331.715 295.333 330.934 296.169 330.934C297.005 330.934 297.68 331.715 297.68 332.683Z" fill="#6BCC70"/>
<path d="M316.789 332.683C316.789 333.651 316.113 334.433 315.277 334.433C314.441 334.433 313.766 333.651 313.766 332.683C313.766 331.715 314.441 330.934 315.277 330.934C316.113 330.934 316.789 331.715 316.789 332.683Z" fill="#6BCC70"/>
<path d="M332.014 341.119C332.014 340.151 332.689 339.37 333.525 339.37C334.361 339.37 335.037 340.151 335.037 341.119C335.037 342.087 334.361 342.869 333.525 342.869C332.689 342.869 332.014 342.087 332.014 341.119Z" fill="#263238"/>
<path d="M326.855 342.869C327.69 342.869 328.367 342.086 328.367 341.119C328.367 340.153 327.69 339.37 326.855 339.37C326.02 339.37 325.344 340.153 325.344 341.119C325.344 342.086 326.02 342.869 326.855 342.869Z" fill="#263238"/>
<path d="M318.668 341.119C318.668 340.151 319.343 339.37 320.18 339.37C321.016 339.37 321.691 340.151 321.691 341.119C321.691 342.087 321.016 342.869 320.18 342.869C319.343 342.869 318.668 342.087 318.668 341.119Z" fill="#263238"/>
<path d="M311.997 341.119C311.997 340.151 312.672 339.37 313.509 339.37C314.345 339.37 315.02 340.151 315.02 341.119C315.02 342.087 314.345 342.869 313.509 342.869C312.672 342.869 311.997 342.087 311.997 341.119Z" fill="#263238"/>
<path d="M260.283 341.119C260.283 340.151 260.959 339.37 261.795 339.37C262.631 339.37 263.306 340.151 263.306 341.119C263.306 342.087 262.631 342.869 261.795 342.869C260.959 342.869 260.283 342.087 260.283 341.119Z" fill="#263238"/>
<path d="M253.479 341.119C253.479 340.151 254.154 339.37 254.99 339.37C255.826 339.37 256.502 340.151 256.502 341.119C256.502 342.087 255.826 342.869 254.99 342.869C254.154 342.869 253.479 342.087 253.479 341.119Z" fill="#263238"/>
<path d="M306.832 342.869C307.667 342.869 308.343 342.086 308.343 341.119C308.343 340.153 307.667 339.37 306.832 339.37C305.997 339.37 305.32 340.153 305.32 341.119C305.32 342.086 305.997 342.869 306.832 342.869Z" fill="#263238"/>
<path d="M272.549 341.119C272.549 340.151 273.224 339.37 274.06 339.37C274.897 339.37 275.572 340.151 275.572 341.119C275.572 342.087 274.897 342.869 274.06 342.869C273.224 342.869 272.549 342.087 272.549 341.119Z" fill="#263238"/>
<path d="M298.651 341.119C298.651 340.151 299.327 339.37 300.163 339.37C300.999 339.37 301.674 340.151 301.674 341.119C301.674 342.087 300.999 342.869 300.163 342.869C299.327 342.869 298.651 342.087 298.651 341.119Z" fill="black"/>
<path d="M291.975 341.119C291.975 340.151 292.65 339.37 293.486 339.37C294.322 339.37 294.998 340.151 294.998 341.119C294.998 342.087 294.322 342.869 293.486 342.869C292.65 342.869 291.975 342.087 291.975 341.119Z" fill="black"/>
<path d="M279.946 342.869C280.781 342.869 281.458 342.086 281.458 341.119C281.458 340.153 280.781 339.37 279.946 339.37C279.111 339.37 278.435 340.153 278.435 341.119C278.435 342.086 279.111 342.869 279.946 342.869Z" fill="black"/>
<path d="M247.94 341.119C247.94 340.151 248.616 339.37 249.452 339.37C250.288 339.37 250.963 340.151 250.963 341.119C250.963 342.087 250.288 342.869 249.452 342.869C248.616 342.869 247.94 342.087 247.94 341.119Z" fill="black"/>
<path d="M285.305 341.119C285.305 340.151 285.98 339.37 286.816 339.37C287.652 339.37 288.328 340.151 288.328 341.119C288.328 342.087 287.652 342.869 286.816 342.869C285.98 342.869 285.305 342.087 285.305 341.119Z" fill="#6BCC70"/>
<path d="M266.195 341.119C266.195 340.151 266.871 339.37 267.707 339.37C268.543 339.37 269.218 340.151 269.218 341.119C269.218 342.087 268.543 342.869 267.707 342.869C266.871 342.869 266.195 342.087 266.195 341.119Z" fill="#6BCC70"/>
<path d="M250.963 348.625C250.963 349.593 250.288 350.374 249.452 350.374C248.616 350.374 247.94 349.593 247.94 348.625C247.94 347.657 248.616 346.875 249.452 346.875C250.288 346.875 250.963 347.657 250.963 348.625Z" fill="#263238"/>
<path d="M257.639 348.625C257.639 349.593 256.964 350.374 256.128 350.374C255.292 350.374 254.616 349.593 254.616 348.625C254.616 347.657 255.292 346.875 256.128 346.875C256.964 346.875 257.639 347.657 257.639 348.625Z" fill="#263238"/>
<path d="M264.309 348.625C264.309 349.593 263.634 350.374 262.798 350.374C261.961 350.374 261.286 349.593 261.286 348.625C261.286 347.657 261.961 346.875 262.798 346.875C263.634 346.875 264.309 347.657 264.309 348.625Z" fill="#263238"/>
<path d="M270.987 348.625C270.987 349.593 270.312 350.374 269.475 350.374C268.639 350.374 267.964 349.593 267.964 348.625C267.964 347.657 268.639 346.875 269.475 346.875C270.312 346.875 270.987 347.657 270.987 348.625Z" fill="#263238"/>
<path d="M322.7 348.625C322.7 349.593 322.024 350.374 321.188 350.374C320.352 350.374 319.677 349.593 319.677 348.625C319.677 347.657 320.352 346.875 321.188 346.875C322.024 346.875 322.7 347.657 322.7 348.625Z" fill="#263238"/>
<path d="M329.505 348.625C329.505 349.593 328.83 350.374 327.994 350.374C327.158 350.374 326.482 349.593 326.482 348.625C326.482 347.657 327.158 346.875 327.994 346.875C328.83 346.875 329.505 347.657 329.505 348.625Z" fill="#263238"/>
<path d="M277.657 348.625C277.657 349.593 276.981 350.374 276.145 350.374C275.309 350.374 274.634 349.593 274.634 348.625C274.634 347.657 275.309 346.875 276.145 346.875C276.981 346.875 277.657 347.657 277.657 348.625Z" fill="#263238"/>
<path d="M310.434 348.625C310.434 349.593 309.759 350.374 308.923 350.374C308.087 350.374 307.411 349.593 307.411 348.625C307.411 347.657 308.087 346.875 308.923 346.875C309.759 346.875 310.434 347.657 310.434 348.625Z" fill="#263238"/>
<path d="M284.333 348.625C284.333 349.593 283.657 350.374 282.821 350.374C281.985 350.374 281.31 349.593 281.31 348.625C281.31 347.657 281.985 346.875 282.821 346.875C283.657 346.875 284.333 347.657 284.333 348.625Z" fill="black"/>
<path d="M291.004 348.625C291.004 349.593 290.328 350.374 289.492 350.374C288.656 350.374 287.98 349.593 287.98 348.625C287.98 347.657 288.656 346.875 289.492 346.875C290.328 346.875 291.004 347.657 291.004 348.625Z" fill="black"/>
<path d="M304.548 348.625C304.548 349.593 303.873 350.374 303.037 350.374C302.201 350.374 301.525 349.593 301.525 348.625C301.525 347.657 302.201 346.875 303.037 346.875C303.873 346.875 304.548 347.657 304.548 348.625Z" fill="black"/>
<path d="M335.044 348.625C335.044 349.593 334.368 350.374 333.532 350.374C332.696 350.374 332.021 349.593 332.021 348.625C332.021 347.657 332.696 346.875 333.532 346.875C334.368 346.875 335.044 347.657 335.044 348.625Z" fill="black"/>
<path d="M297.68 348.625C297.68 349.593 297.005 350.374 296.169 350.374C295.333 350.374 294.657 349.593 294.657 348.625C294.657 347.657 295.333 346.875 296.169 346.875C297.005 346.875 297.68 347.657 297.68 348.625Z" fill="#6BCC70"/>
<path d="M316.789 348.625C316.789 349.593 316.113 350.374 315.277 350.374C314.441 350.374 313.766 349.593 313.766 348.625C313.766 347.657 314.441 346.875 315.277 346.875C316.113 346.875 316.789 347.657 316.789 348.625Z" fill="#6BCC70"/>
<path d="M240.878 330.227H214.513V334.925H240.878V330.227Z" fill="#263238"/>
<path d="M240.878 338.305H214.513V343.003H240.878V338.305Z" fill="#263238"/>
<path d="M240.878 346.659H214.513V351.357H240.878V346.659Z" fill="#263238"/>
<path d="M241.843 252.099H215.478V256.797H241.843V252.099Z" fill="#263238"/>
<path d="M343.425 227.744H209.535V266.194H343.425V227.744Z" fill="#455A64"/>
<path d="M241.843 235.666H215.478V240.364H241.843V235.666Z" fill="#263238"/>
<path d="M241.843 243.745H215.478V248.443H241.843V243.745Z" fill="#263238"/>
<path d="M252.27 238.503C252.27 239.471 251.595 240.253 250.759 240.253C249.922 240.253 249.247 239.471 249.247 238.503C249.247 237.535 249.922 236.753 250.759 236.753C251.595 236.753 252.27 237.535 252.27 238.503Z" fill="#263238"/>
<path d="M258.94 238.503C258.94 239.471 258.265 240.253 257.429 240.253C256.592 240.253 255.917 239.471 255.917 238.503C255.917 237.535 256.592 236.753 257.429 236.753C258.265 236.753 258.94 237.535 258.94 238.503Z" fill="#263238"/>
<path d="M265.617 238.503C265.617 239.471 264.941 240.253 264.105 240.253C263.269 240.253 262.594 239.471 262.594 238.503C262.594 237.535 263.269 236.753 264.105 236.753C264.941 236.753 265.617 237.535 265.617 238.503Z" fill="#263238"/>
<path d="M272.287 238.503C272.287 239.471 271.611 240.253 270.775 240.253C269.939 240.253 269.264 239.471 269.264 238.503C269.264 237.535 269.939 236.753 270.775 236.753C271.611 236.753 272.287 237.535 272.287 238.503Z" fill="#263238"/>
<path d="M324.001 238.503C324.001 239.471 323.325 240.253 322.489 240.253C321.653 240.253 320.978 239.471 320.978 238.503C320.978 237.535 321.653 236.753 322.489 236.753C323.325 236.753 324.001 237.535 324.001 238.503Z" fill="#263238"/>
<path d="M330.805 238.503C330.805 239.471 330.13 240.253 329.294 240.253C328.458 240.253 327.782 239.471 327.782 238.503C327.782 237.535 328.458 236.753 329.294 236.753C330.13 236.753 330.805 237.535 330.805 238.503Z" fill="#263238"/>
<path d="M278.963 238.503C278.963 239.471 278.288 240.253 277.452 240.253C276.616 240.253 275.94 239.471 275.94 238.503C275.94 237.535 276.616 236.753 277.452 236.753C278.288 236.753 278.963 237.535 278.963 238.503Z" fill="#263238"/>
<path d="M311.735 238.503C311.735 239.471 311.06 240.253 310.223 240.253C309.387 240.253 308.712 239.471 308.712 238.503C308.712 237.535 309.387 236.753 310.223 236.753C311.06 236.753 311.735 237.535 311.735 238.503Z" fill="#263238"/>
<path d="M285.632 238.503C285.632 239.471 284.957 240.253 284.121 240.253C283.285 240.253 282.609 239.471 282.609 238.503C282.609 237.535 283.285 236.753 284.121 236.753C284.957 236.753 285.632 237.535 285.632 238.503Z" fill="black"/>
<path d="M292.309 238.503C292.309 239.471 291.634 240.253 290.798 240.253C289.962 240.253 289.286 239.471 289.286 238.503C289.286 237.535 289.962 236.753 290.798 236.753C291.634 236.753 292.309 237.535 292.309 238.503Z" fill="black"/>
<path d="M305.849 238.503C305.849 239.471 305.174 240.253 304.338 240.253C303.502 240.253 302.826 239.471 302.826 238.503C302.826 237.535 303.502 236.753 304.338 236.753C305.174 236.753 305.849 237.535 305.849 238.503Z" fill="black"/>
<path d="M336.343 238.503C336.343 239.471 335.668 240.253 334.832 240.253C333.996 240.253 333.32 239.471 333.32 238.503C333.32 237.535 333.996 236.753 334.832 236.753C335.668 236.753 336.343 237.535 336.343 238.503Z" fill="black"/>
<path d="M299.467 238.503C299.467 239.471 298.792 240.253 297.956 240.253C297.12 240.253 296.444 239.471 296.444 238.503C296.444 237.535 297.12 236.753 297.956 236.753C298.792 236.753 299.467 237.535 299.467 238.503Z" fill="#6BCC70"/>
<path d="M318.571 238.503C318.571 239.471 317.896 240.253 317.059 240.253C316.223 240.253 315.548 239.471 315.548 238.503C315.548 237.535 316.223 236.753 317.059 236.753C317.896 236.753 318.571 237.535 318.571 238.503Z" fill="#6BCC70"/>
<path d="M333.32 246.939C333.32 245.971 333.996 245.189 334.832 245.189C335.668 245.189 336.343 245.971 336.343 246.939C336.343 247.907 335.668 248.689 334.832 248.689C333.996 248.689 333.32 247.907 333.32 246.939Z" fill="#263238"/>
<path d="M326.644 246.939C326.644 245.971 327.319 245.189 328.155 245.189C328.991 245.189 329.667 245.971 329.667 246.939C329.667 247.907 328.991 248.689 328.155 248.689C327.319 248.689 326.644 247.907 326.644 246.939Z" fill="#263238"/>
<path d="M319.974 246.939C319.974 245.971 320.649 245.189 321.485 245.189C322.321 245.189 322.997 245.971 322.997 246.939C322.997 247.907 322.321 248.689 321.485 248.689C320.649 248.689 319.974 247.907 319.974 246.939Z" fill="#263238"/>
<path d="M313.297 246.939C313.297 245.971 313.972 245.189 314.808 245.189C315.645 245.189 316.32 245.971 316.32 246.939C316.32 247.907 315.645 248.689 314.808 248.689C313.972 248.689 313.297 247.907 313.297 246.939Z" fill="#263238"/>
<path d="M261.583 246.939C261.583 245.971 262.258 245.189 263.095 245.189C263.931 245.189 264.606 245.971 264.606 246.939C264.606 247.907 263.931 248.689 263.095 248.689C262.258 248.689 261.583 247.907 261.583 246.939Z" fill="#263238"/>
<path d="M254.778 246.939C254.778 245.971 255.454 245.189 256.29 245.189C257.126 245.189 257.801 245.971 257.801 246.939C257.801 247.907 257.126 248.689 256.29 248.689C255.454 248.689 254.778 247.907 254.778 246.939Z" fill="#263238"/>
<path d="M306.627 246.939C306.627 245.971 307.302 245.189 308.138 245.189C308.975 245.189 309.65 245.971 309.65 246.939C309.65 247.907 308.975 248.689 308.138 248.689C307.302 248.689 306.627 247.907 306.627 246.939Z" fill="#263238"/>
<path d="M275.36 248.689C276.195 248.689 276.872 247.906 276.872 246.939C276.872 245.973 276.195 245.189 275.36 245.189C274.525 245.189 273.849 245.973 273.849 246.939C273.849 247.906 274.525 248.689 275.36 248.689Z" fill="#263238"/>
<path d="M299.951 246.939C299.951 245.971 300.627 245.189 301.463 245.189C302.299 245.189 302.974 245.971 302.974 246.939C302.974 247.907 302.299 248.689 301.463 248.689C300.627 248.689 299.951 247.907 299.951 246.939Z" fill="black"/>
<path d="M294.793 248.689C295.628 248.689 296.304 247.906 296.304 246.939C296.304 245.973 295.628 245.189 294.793 245.189C293.958 245.189 293.281 245.973 293.281 246.939C293.281 247.906 293.958 248.689 294.793 248.689Z" fill="black"/>
<path d="M279.741 246.939C279.741 245.971 280.417 245.189 281.253 245.189C282.089 245.189 282.764 245.971 282.764 246.939C282.764 247.907 282.089 248.689 281.253 248.689C280.417 248.689 279.741 247.907 279.741 246.939Z" fill="black"/>
<path d="M249.24 246.939C249.24 245.971 249.916 245.189 250.752 245.189C251.588 245.189 252.263 245.971 252.263 246.939C252.263 247.907 251.588 248.689 250.752 248.689C249.916 248.689 249.24 247.907 249.24 246.939Z" fill="black"/>
<path d="M287.086 246.939C287.086 245.971 287.279 245.189 288.115 245.189C288.951 245.189 289.627 245.971 289.627 246.939C289.627 247.907 288.951 248.689 288.115 248.689C287.279 248.689 287.086 247.907 287.086 246.939Z" fill="#6BCC70"/>
<path d="M267.982 246.939C267.982 245.971 268.658 245.189 269.494 245.189C270.33 245.189 271.005 245.971 271.005 246.939C271.005 247.907 270.33 248.689 269.494 248.689C268.658 248.689 267.982 247.907 267.982 246.939Z" fill="#6BCC70"/>
<path d="M252.27 254.445C252.27 255.413 251.595 256.194 250.759 256.194C249.922 256.194 249.247 255.413 249.247 254.445C249.247 253.477 249.922 252.695 250.759 252.695C251.595 252.695 252.27 253.477 252.27 254.445Z" fill="#263238"/>
<path d="M258.94 254.445C258.94 255.413 258.265 256.194 257.429 256.194C256.592 256.194 255.917 255.413 255.917 254.445C255.917 253.477 256.592 252.695 257.429 252.695C258.265 252.695 258.94 253.477 258.94 254.445Z" fill="#263238"/>
<path d="M265.616 254.445C265.616 255.413 264.94 256.194 264.104 256.194C263.268 256.194 262.593 255.413 262.593 254.445C262.593 253.477 263.268 252.695 264.104 252.695C264.94 252.695 265.616 253.477 265.616 254.445Z" fill="#263238"/>
<path d="M270.775 256.194C271.61 256.194 272.287 255.411 272.287 254.445C272.287 253.478 271.61 252.695 270.775 252.695C269.94 252.695 269.264 253.478 269.264 254.445C269.264 255.411 269.94 256.194 270.775 256.194Z" fill="#263238"/>
<path d="M324.001 254.445C324.001 255.413 323.325 256.194 322.489 256.194C321.653 256.194 320.978 255.413 320.978 254.445C320.978 253.477 321.653 252.695 322.489 252.695C323.325 252.695 324.001 253.477 324.001 254.445Z" fill="#263238"/>
<path d="M330.805 254.445C330.805 255.413 330.13 256.194 329.294 256.194C328.458 256.194 327.782 255.413 327.782 254.445C327.782 253.477 328.458 252.695 329.294 252.695C330.13 252.695 330.805 253.477 330.805 254.445Z" fill="#263238"/>
<path d="M278.964 254.445C278.964 255.413 278.288 256.194 277.452 256.194C276.616 256.194 275.94 255.413 275.94 254.445C275.94 253.477 276.616 252.695 277.452 252.695C278.288 252.695 278.964 253.477 278.964 254.445Z" fill="#263238"/>
<path d="M311.735 254.445C311.735 255.413 311.06 256.194 310.223 256.194C309.387 256.194 308.712 255.413 308.712 254.445C308.712 253.477 309.387 252.695 310.223 252.695C311.06 252.695 311.735 253.477 311.735 254.445Z" fill="#263238"/>
<path d="M285.633 254.445C285.633 255.413 284.958 256.194 284.122 256.194C283.286 256.194 282.61 255.413 282.61 254.445C282.61 253.477 283.286 252.695 284.122 252.695C284.958 252.695 285.633 253.477 285.633 254.445Z" fill="black"/>
<path d="M292.31 254.445C292.31 255.413 291.635 256.194 290.799 256.194C289.962 256.194 289.287 255.413 289.287 254.445C289.287 253.477 289.962 252.695 290.799 252.695C291.635 252.695 292.31 253.477 292.31 254.445Z" fill="black"/>
<path d="M304.338 256.194C305.173 256.194 305.849 255.411 305.849 254.445C305.849 253.478 305.173 252.695 304.338 252.695C303.503 252.695 302.826 253.478 302.826 254.445C302.826 255.411 303.503 256.194 304.338 256.194Z" fill="black"/>
<path d="M336.343 254.445C336.343 255.413 335.668 256.194 334.832 256.194C333.996 256.194 333.32 255.413 333.32 254.445C333.32 253.477 333.996 252.695 334.832 252.695C335.668 252.695 336.343 253.477 336.343 254.445Z" fill="black"/>
<path d="M298.98 254.445C298.98 255.413 298.305 256.194 297.469 256.194C296.632 256.194 296.439 255.413 296.439 254.445C296.439 253.477 296.632 252.695 297.469 252.695C298.305 252.695 298.98 253.477 298.98 254.445Z" fill="#6BCC70"/>
<path d="M318.572 254.445C318.572 255.413 317.897 256.194 317.06 256.194C316.224 256.194 315.549 255.413 315.549 254.445C315.549 253.477 316.224 252.695 317.06 252.695C317.897 252.695 318.572 253.477 318.572 254.445Z" fill="#6BCC70"/>
<path d="M225.91 405.235C225.82 405.235 225.743 401.795 225.743 397.551C225.743 393.307 225.82 389.867 225.91 389.867C226 389.867 226.078 393.307 226.078 397.551C226.078 401.795 226 405.235 225.91 405.235Z" fill="#263238"/>
<path d="M229.66 405.235C229.57 405.235 229.493 401.795 229.493 397.551C229.493 393.307 229.57 389.867 229.66 389.867C229.75 389.867 229.828 393.307 229.828 397.551C229.828 401.795 229.75 405.235 229.66 405.235Z" fill="#263238"/>
<path d="M233.41 405.235C233.32 405.235 233.243 401.795 233.243 397.551C233.243 393.307 233.32 389.867 233.41 389.867C233.5 389.867 233.578 393.307 233.578 397.551C233.578 401.795 233.5 405.235 233.41 405.235Z" fill="#263238"/>
<path d="M237.166 405.235C237.076 405.235 236.999 401.795 236.999 397.551C236.999 393.307 237.076 389.867 237.166 389.867C237.256 389.867 237.333 393.307 237.333 397.551C237.333 401.795 237.256 405.235 237.166 405.235Z" fill="#263238"/>
<path d="M240.916 405.235C240.826 405.235 240.749 401.795 240.749 397.551C240.749 393.307 240.826 389.867 240.916 389.867C241.006 389.867 241.083 393.307 241.083 397.551C241.083 401.795 241.006 405.235 240.916 405.235Z" fill="#263238"/>
<path d="M244.666 405.235C244.576 405.235 244.499 401.795 244.499 397.551C244.499 393.307 244.576 389.867 244.666 389.867C244.756 389.867 244.833 393.307 244.833 397.551C244.833 401.795 244.756 405.235 244.666 405.235Z" fill="#263238"/>
<path d="M248.416 405.235C248.326 405.235 248.249 401.795 248.249 397.551C248.249 393.307 248.326 389.867 248.416 389.867C248.506 389.867 248.583 393.307 248.583 397.551C248.583 401.795 248.506 405.235 248.416 405.235Z" fill="#263238"/>
<path d="M252.166 405.235C252.076 405.235 251.999 401.795 251.999 397.551C251.999 393.307 252.076 389.867 252.166 389.867C252.256 389.867 252.333 393.307 252.333 397.551C252.333 401.795 252.256 405.235 252.166 405.235Z" fill="#263238"/>
<path d="M255.915 405.235C255.825 405.235 255.748 401.795 255.748 397.551C255.748 393.307 255.825 389.867 255.915 389.867C256.005 389.867 256.083 393.307 256.083 397.551C256.083 401.795 256.005 405.235 255.915 405.235Z" fill="#263238"/>
<path d="M259.666 405.235C259.576 405.235 259.499 401.795 259.499 397.551C259.499 393.307 259.576 389.867 259.666 389.867C259.756 389.867 259.833 393.307 259.833 397.551C259.833 401.795 259.756 405.235 259.666 405.235Z" fill="#263238"/>
<path d="M263.416 405.235C263.326 405.235 263.249 401.795 263.249 397.551C263.249 393.307 263.326 389.867 263.416 389.867C263.506 389.867 263.583 393.307 263.583 397.551C263.583 401.795 263.506 405.235 263.416 405.235Z" fill="#263238"/>
<path d="M267.165 405.235C267.075 405.235 266.998 401.795 266.998 397.551C266.998 393.307 267.075 389.867 267.165 389.867C267.255 389.867 267.333 393.307 267.333 397.551C267.333 401.795 267.255 405.235 267.165 405.235Z" fill="#263238"/>
<path d="M270.915 405.235C270.825 405.235 270.748 401.795 270.748 397.551C270.748 393.307 270.825 389.867 270.915 389.867C271.005 389.867 271.083 393.307 271.083 397.551C271.083 401.795 271.005 405.235 270.915 405.235Z" fill="#263238"/>
<path d="M274.666 405.235C274.576 405.235 274.499 401.795 274.499 397.551C274.499 393.307 274.576 389.867 274.666 389.867C274.756 389.867 274.833 393.307 274.833 397.551C274.833 401.795 274.756 405.235 274.666 405.235Z" fill="#263238"/>
<path d="M278.415 405.235C278.325 405.235 278.248 401.795 278.248 397.551C278.248 393.307 278.325 389.867 278.415 389.867C278.505 389.867 278.583 393.307 278.583 397.551C278.583 401.795 278.505 405.235 278.415 405.235Z" fill="#263238"/>
<path d="M282.165 405.235C282.075 405.235 281.998 401.795 281.998 397.551C281.998 393.307 282.075 389.867 282.165 389.867C282.255 389.867 282.333 393.307 282.333 397.551C282.333 401.795 282.255 405.235 282.165 405.235Z" fill="#263238"/>
<path d="M285.914 405.235C285.824 405.235 285.747 401.795 285.747 397.551C285.747 393.307 285.824 389.867 285.914 389.867C286.004 389.867 286.082 393.307 286.082 397.551C286.082 401.795 286.004 405.235 285.914 405.235Z" fill="#263238"/>
<path d="M289.672 405.235C289.582 405.235 289.505 401.795 289.505 397.551C289.505 393.307 289.582 389.867 289.672 389.867C289.762 389.867 289.839 393.307 289.839 397.551C289.839 401.795 289.762 405.235 289.672 405.235Z" fill="#263238"/>
<path d="M293.421 405.235C293.331 405.235 293.254 401.795 293.254 397.551C293.254 393.307 293.331 389.867 293.421 389.867C293.511 389.867 293.588 393.307 293.588 397.551C293.588 401.795 293.511 405.235 293.421 405.235Z" fill="#263238"/>
<path d="M297.171 405.235C297.081 405.235 297.004 401.795 297.004 397.551C297.004 393.307 297.081 389.867 297.171 389.867C297.261 389.867 297.338 393.307 297.338 397.551C297.338 401.795 297.261 405.235 297.171 405.235Z" fill="#263238"/>
<path d="M300.92 405.235C300.83 405.235 300.753 401.795 300.753 397.551C300.753 393.307 300.83 389.867 300.92 389.867C301.01 389.867 301.087 393.307 301.087 397.551C301.087 401.795 301.01 405.235 300.92 405.235Z" fill="#263238"/>
<path d="M304.671 405.235C304.581 405.235 304.504 401.795 304.504 397.551C304.504 393.307 304.581 389.867 304.671 389.867C304.761 389.867 304.838 393.307 304.838 397.551C304.838 401.795 304.761 405.235 304.671 405.235Z" fill="#263238"/>
<path d="M308.421 405.235C308.331 405.235 308.254 401.795 308.254 397.551C308.254 393.307 308.331 389.867 308.421 389.867C308.511 389.867 308.588 393.307 308.588 397.551C308.588 401.795 308.511 405.235 308.421 405.235Z" fill="#263238"/>
<path d="M312.171 405.235C312.081 405.235 312.004 401.795 312.004 397.551C312.004 393.307 312.081 389.867 312.171 389.867C312.261 389.867 312.338 393.307 312.338 397.551C312.338 401.795 312.261 405.235 312.171 405.235Z" fill="#263238"/>
<path d="M315.92 405.235C315.83 405.235 315.753 401.795 315.753 397.551C315.753 393.307 315.83 389.867 315.92 389.867C316.01 389.867 316.087 393.307 316.087 397.551C316.087 401.795 316.01 405.235 315.92 405.235Z" fill="#263238"/>
<path d="M319.67 405.235C319.58 405.235 319.503 401.795 319.503 397.551C319.503 393.307 319.58 389.867 319.67 389.867C319.76 389.867 319.837 393.307 319.837 397.551C319.837 401.795 319.76 405.235 319.67 405.235Z" fill="#263238"/>
<path d="M323.42 405.235C323.33 405.235 323.253 401.795 323.253 397.551C323.253 393.307 323.33 389.867 323.42 389.867C323.51 389.867 323.587 393.307 323.587 397.551C323.587 401.795 323.51 405.235 323.42 405.235Z" fill="#263238"/>
<path d="M327.17 405.235C327.08 405.235 327.003 401.795 327.003 397.551C327.003 393.307 327.08 389.867 327.17 389.867C327.26 389.867 327.337 393.307 327.337 397.551C327.337 401.795 327.26 405.235 327.17 405.235Z" fill="#263238"/>
<path d="M354.706 376.844C354.706 375.445 354.648 310.749 354.565 211.245L354.706 211.409C310.338 211.416 257.569 211.424 201.122 211.438H201.109L201.276 211.245C201.269 271.637 201.263 328.388 201.257 376.844L201.109 376.673C292.978 376.777 353.445 376.844 354.706 376.844C353.445 376.844 292.978 376.911 201.109 377.016H200.961V376.844C200.961 328.388 200.948 271.637 200.941 211.245V211.051H201.122C257.569 211.059 310.331 211.074 354.706 211.081H354.848V211.245C354.764 310.749 354.706 375.445 354.706 376.844Z" fill="#263238"/>
<path d="M202.235 232.13H199.983V254.832H202.235V232.13Z" fill="#263238"/>
<path d="M202.235 329.773H199.983V352.475H202.235V329.773Z" fill="#263238"/>
<path d="M133.68 413.549L424.68 413.549" stroke="#263238" stroke-width="1.17" stroke-linecap="round" stroke-linejoin="round"/>
<defs>
<clipPath id="clip0_9004_21644">
<rect width="423.881" height="422.196" fill="white" transform="translate(79.0898 0.5)"/>
</clipPath>
<clipPath id="clip1_9004_21644">
<rect width="545.519" height="226.144" fill="white" transform="translate(0.5 57.3027)"/>
</clipPath>
</defs>
</svg>
