<svg xmlns="http://www.w3.org/2000/svg" fill="none" viewBox="0 0 20 21"><path fill="currentColor" d="M10 0c-.822 0-1.5.426-2.001 1h-2.25a.75.75 0 0 0-.701 1.014l1.306 3.484C4.914 6.648.324 10.76.53 16.438.623 18.98 2.737 21 5.278 21h9.444c2.54 0 4.655-2.02 4.748-4.563.206-5.678-4.384-9.789-5.825-10.939l1.307-3.484A.75.75 0 0 0 14.25 1H12c-.501-.574-1.178-1-2-1Zm0 1.5c.464 0 .854.25 1.074.627a.75.75 0 0 0 .649.373h1.445L12.23 5H7.77l-.938-2.5h1.445a.75.75 0 0 0 .649-.373c.22-.378.61-.627 1.074-.627Zm-2.492 5h4.984c.866.68 5.668 4.691 5.479 9.883a3.237 3.237 0 0 1-3.25 3.117H5.279a3.237 3.237 0 0 1-3.249-3.117C1.841 11.19 6.642 7.18 7.508 6.5Z"/></svg>
