<svg xmlns="http://www.w3.org/2000/svg" fill="currentColor" viewBox="0 0 24 24"><path fill="currentColor" d="M6.25 2C5.01 2 4 3.01 4 4.25v15.5C4 20.99 5.01 22 6.25 22H16.5v-.025a4.984 4.984 0 0 1-3.065-1.475H6.25a.75.75 0 0 1-.75-.75V4.25a.75.75 0 0 1 .75-.75H12v4.25C12 8.99 13.01 10 14.25 10h4.25v2.23a4.984 4.984 0 0 1 1.5.78V9.25a.747.747 0 0 0-.22-.53l-6.5-6.5a.748.748 0 0 0-.53-.22h-6.5Zm7.25 2.56 3.94 3.94h-3.19a.75.75 0 0 1-.75-.75V4.56ZM8.75 12.5a.75.75 0 1 0 0 1.5H13a5.022 5.022 0 0 1 1.818-1.5H8.75ZM17 13c-2.206 0-4 1.794-4 4s1.794 4 4 4c.832 0 1.605-.256 2.246-.693l2.474 2.473a.747.747 0 0 0 1.06 0 .75.75 0 0 0 0-1.06l-2.472-2.474A3.976 3.976 0 0 0 21 17c0-2.206-1.794-4-4-4Zm0 1.5c1.378 0 2.5 1.121 2.5 2.5 0 1.378-1.122 2.5-2.5 2.5a2.503 2.503 0 0 1-2.5-2.5c0-1.379 1.121-2.5 2.5-2.5ZM8.75 16a.75.75 0 1 0 0 1.5h3.275A5.004 5.004 0 0 1 12.1 16H8.75Z"/></svg>
