<svg xmlns="http://www.w3.org/2000/svg" fill="currentColor" viewBox="0 0 54 54"><path fill="currentColor" d="M27.683 4.548a3.843 3.843 0 0 0-.892.073L9.694 8.04a5.08 5.08 0 0 0-4.069 4.964v27.993a5.08 5.08 0 0 0 4.07 4.963l17.096 3.42c2.188.436 4.21-1.128 4.568-3.255h10.828c3.398 0 6.188-2.79 6.188-6.188v-24.75c0-3.397-2.79-6.187-6.188-6.187H31.5v-.519c0-2.143-1.766-3.858-3.817-3.933Zm-.23 3.382c.381-.076.672.161.672.551V45.52c0 .39-.291.628-.672.551v-.002l-17.095-3.419h-.002A1.667 1.667 0 0 1 9 40.997V13.004a1.67 1.67 0 0 1 1.358-1.655L27.453 7.93Zm4.047 4.445h10.688A2.788 2.788 0 0 1 45 15.188v24.75a2.788 2.788 0 0 1-2.813 2.812H31.5V12.375Zm3.938 4.5a1.688 1.688 0 1 0 0 3.375h4.5a1.687 1.687 0 1 0 0-3.375h-4.5Zm-20.815 2.428a1.688 1.688 0 0 0-1.468 2.593l3.362 5.282-3.362 5.282a1.688 1.688 0 0 0 2.848 1.813l2.513-3.95 2.514 3.948a1.692 1.692 0 0 0 2.33.518 1.691 1.691 0 0 0 .518-2.331l-3.36-5.28 3.36-5.28a1.687 1.687 0 1 0-2.848-1.813l-2.514 3.949-2.513-3.951a1.684 1.684 0 0 0-1.38-.78Zm20.815 6.572a1.688 1.688 0 1 0 0 3.375h4.5a1.687 1.687 0 1 0 0-3.375h-4.5Zm0 9a1.688 1.688 0 1 0 0 3.375h4.5a1.687 1.687 0 1 0 0-3.375h-4.5Z"/></svg>
