<svg xmlns="http://www.w3.org/2000/svg" fill="none" viewBox="0 0 18 18"><path fill="currentColor"  d="M1.25 0C.568 0 0 .568 0 1.25v1.545C0 3.943.528 5.029 1.43 5.74l.003.002L6.5 9.696v7.554a.75.75 0 0 0 1.186.61l3.5-2.5a.75.75 0 0 0 .314-.61V9.696l5.067-3.954.003-.002A3.752 3.752 0 0 0 18 2.795V1.25C18 .568 17.432 0 16.75 0H1.25Zm.25 1.5h15v1.295c0 .69-.315 1.34-.857 1.767l-5.354 4.176A.75.75 0 0 0 10 9.33v5.034l-2 1.429V9.33a.75.75 0 0 0-.29-.592L2.358 4.562A2.247 2.247 0 0 1 1.5 2.795V1.5Z"/></svg>
