<svg  viewBox="0 0 575 423" fill="none" xmlns="http://www.w3.org/2000/svg">
<g clip-path="url(#clip0_2527_10906)">
<rect width="575" height="422" transform="translate(0 0.5)" fill="white"/>
<g clip-path="url(#clip1_2527_10906)">
<path d="M77.6263 206.209C77.6263 206.209 79.9799 279.262 140.961 327.958C201.942 376.654 286.449 380.133 354.857 384.76C423.264 389.386 475.815 350.662 483.728 292.116C491.651 233.58 439.374 216.394 411.009 149.752C382.644 83.1102 385.17 61.2073 325.163 20.2218C265.165 -20.7637 171.284 4.40588 122.071 74.6189C72.848 144.832 77.6263 206.209 77.6263 206.209Z" fill="#6BCC70"/>
<path opacity="0.7" d="M77.6263 206.209C77.6263 206.209 79.9799 279.262 140.961 327.958C201.942 376.654 286.449 380.133 354.857 384.76C423.264 389.386 475.815 350.662 483.728 292.116C491.651 233.58 439.374 216.394 411.009 149.752C382.644 83.1102 385.17 61.2073 325.163 20.2218C265.165 -20.7637 171.284 4.40588 122.071 74.6189C72.848 144.832 77.6263 206.209 77.6263 206.209Z" fill="white"/>
<path d="M135.143 110.796V84.6525C135.143 66.1481 150.522 51.0931 169.422 51.0931C188.322 51.0931 203.702 66.1481 203.702 84.6525V110.796H217.367V84.6525C217.367 58.7728 195.86 37.7119 169.422 37.7119C142.985 37.7119 121.478 58.7829 121.478 84.6626V110.806H135.143V110.796Z" stroke="#263238" stroke-width="1.17" stroke-linecap="round" stroke-linejoin="round"/>
<path d="M221.081 110.989H116.405V197.576H221.081V110.989Z" stroke="#263238" stroke-width="1.17" stroke-linecap="round" stroke-linejoin="round"/>
<path d="M179.629 146.942C179.629 140.784 174.526 135.783 168.237 135.783C161.947 135.783 156.844 140.774 156.844 146.942C156.844 151.183 159.268 154.875 162.829 156.762L160.912 176.433H175.561L173.644 156.762C177.205 154.875 179.629 151.183 179.629 146.942Z" stroke="#263238" stroke-width="1.17" stroke-linecap="round" stroke-linejoin="round"/>
<path d="M286.334 200.385L260.271 198.671V198.245L257.076 198.458L253.87 198.245V198.671L227.808 200.385L208.583 358.433H227.808L256.426 232.423H257.715L286.334 358.433H305.558L286.334 200.385Z" fill="#263238" stroke="#263238" stroke-width="1.17" stroke-linecap="round" stroke-linejoin="round"/>
<path d="M208.583 358.434L203.886 365.697L189.359 372.109C189.359 372.109 186.792 373.387 186.792 376.38V381.929H228.224C228.224 381.929 228.65 377.232 228.224 372.961C227.798 368.69 227.798 358.434 227.798 358.434H208.573H208.583Z" fill="#4C4C4C" stroke="#263238" stroke-width="1.17" stroke-linecap="round" stroke-linejoin="round"/>
<path d="M186.802 377.232V381.929H228.234C228.234 381.929 228.416 379.859 228.426 377.232H186.802Z" fill="#263238" stroke="#263238" stroke-width="1.17" stroke-linecap="round" stroke-linejoin="round"/>
<path d="M305.477 358.434L310.175 365.697L324.702 372.109C324.702 372.109 327.269 373.387 327.269 376.38V381.929H285.837C285.837 381.929 285.411 377.232 285.837 372.961C286.263 368.69 286.263 358.434 286.263 358.434H305.488H305.477Z" fill="#4C4C4C" stroke="#263238" stroke-width="1.17" stroke-linecap="round" stroke-linejoin="round"/>
<path d="M327.258 377.232V381.929H285.827C285.827 381.929 285.644 379.859 285.634 377.232H327.258Z" fill="#263238" stroke="#263238" stroke-width="1.17" stroke-linecap="round" stroke-linejoin="round"/>
<path d="M216.77 126.855C216.77 126.855 186.376 169.626 186.376 172.761C186.376 175.896 191.215 200.101 198.905 202.374C206.595 204.656 210.866 200.669 212.286 192.696C213.706 184.722 208.867 173.329 208.867 173.329L223.111 160.516L216.77 126.855Z" fill="#6BCC70" stroke="#263238" stroke-width="1.17" stroke-linecap="round" stroke-linejoin="round"/>
<path d="M210.866 191.549C210.866 191.549 219.692 190.129 221.975 190.697C224.257 191.265 225.962 196.672 225.962 196.672C225.962 196.672 226.814 204.646 225.394 206.351C223.973 208.055 217.136 210.054 214.285 210.622C211.434 211.19 205.459 204.636 203.176 200.649C200.894 196.662 204.881 189.825 210.866 191.539V191.549Z" fill="white" stroke="#263238" stroke-width="1.17" stroke-linecap="round" stroke-linejoin="round"/>
<path d="M223.172 124.907L216.771 126.855L226.855 194.156H286.791L295.911 127.241L287.765 124.136L257.705 117.542L223.172 124.907Z" fill="#6BCC70" stroke="#263238" stroke-width="1.17" stroke-linecap="round" stroke-linejoin="round"/>
<path d="M290.097 147.409L288.738 157.107L278.258 159.633L267.596 155.362L268.367 146.638L290.097 147.409Z" fill="#263238" stroke="#263238" stroke-width="1.17" stroke-linecap="round" stroke-linejoin="round"/>
<path d="M277.092 155.271C277.092 154.257 277.914 153.425 278.938 153.425C279.963 153.425 280.785 154.247 280.785 155.271C280.785 156.296 279.963 157.118 278.938 157.118C277.914 157.118 277.092 156.296 277.092 155.271Z" fill="#4C4C4C" stroke="#263238" stroke-width="1.17" stroke-linecap="round" stroke-linejoin="round"/>
<path d="M251.303 129.959L256.923 136.554L249.751 182.327L257.309 194.349L266.236 181.749L258.668 136.746L265.07 130.538L258.283 121.813L251.303 129.959Z" fill="#263238" stroke="#263238" stroke-width="1.17" stroke-linecap="round" stroke-linejoin="round"/>
<path d="M245.866 118.516L220.067 124.907L220.849 128.012L246.059 121.032L245.866 118.516Z" fill="#263238" stroke="#263238" stroke-width="1.17" stroke-linecap="round" stroke-linejoin="round"/>
<path d="M267.008 117.735L292.807 124.136L292.036 127.241L266.815 120.261L267.008 117.735Z" fill="#263238" stroke="#263238" stroke-width="1.17" stroke-linecap="round" stroke-linejoin="round"/>
<path d="M292.806 124.136C292.806 124.136 302.566 126.338 308.541 129.757C314.527 133.175 315.947 140.865 312.528 149.407C309.109 157.949 298.579 156.813 293.729 154.53C288.89 152.248 287.46 143.706 288.322 140.003" fill="#6BCC70"/>
<path d="M292.806 124.136C292.806 124.136 302.566 126.338 308.541 129.757C314.527 133.175 315.947 140.865 312.528 149.407C309.109 157.949 298.579 156.813 293.729 154.53C288.89 152.248 287.46 143.706 288.322 140.003" stroke="#263238" stroke-width="1.17" stroke-linecap="round" stroke-linejoin="round"/>
<path d="M247.033 115.219L244.121 117.156L244.902 136.746L257.502 127.819L270.701 136.939L271.857 117.542L268.367 114.63L247.033 115.219Z" fill="#6BCC70" stroke="#263238" stroke-width="1.17" stroke-linecap="round" stroke-linejoin="round"/>
<path d="M272.517 91.916C272.517 91.916 279.679 90.171 281.038 83.0087C282.398 75.8464 269.422 67.1319 260.515 65.5797C251.608 64.0276 238.44 73.3203 236.309 79.7116C234.179 86.1029 242.508 92.4942 251.415 93.8435C260.322 95.2029 272.517 91.9058 272.517 91.9058V91.916Z" fill="#263238" stroke="#263238" stroke-width="1.17" stroke-linecap="round" stroke-linejoin="round"/>
<path d="M245.795 93.0724C245.795 93.0724 241.919 87.0666 240.956 92.3014C239.992 97.526 244.05 99.8492 245.795 99.6565C247.54 99.4637 245.795 93.0724 245.795 93.0724Z" fill="white" stroke="#263238" stroke-width="1.17" stroke-linecap="round" stroke-linejoin="round"/>
<path d="M270.964 93.0724C270.964 93.0724 274.839 87.0666 275.803 92.3014C276.767 97.526 272.709 99.8492 270.964 99.6565C269.219 99.4637 270.964 93.0724 270.964 93.0724Z" fill="white" stroke="#263238" stroke-width="1.17" stroke-linecap="round" stroke-linejoin="round"/>
<path d="M246.646 104.932V117.735L257.502 127.819L269.726 117.349V105.317L246.646 104.932Z" fill="white" stroke="#263238" stroke-width="1.17" stroke-linecap="round" stroke-linejoin="round"/>
<path d="M245.024 89.2073C245.024 89.2073 244.445 101.209 245.409 105.084C246.373 108.959 252.764 117.086 257.796 118.83C262.828 120.575 269.798 110.116 271.35 106.636C272.902 103.146 272.313 88.4363 272.313 88.4363C272.313 88.4363 270.183 83.4044 265.922 81.8522C261.661 80.3001 248.493 77.5914 245.013 89.2073H245.024Z" fill="white" stroke="#263238" stroke-width="1.17" stroke-linecap="round" stroke-linejoin="round"/>
<path d="M244.577 92.1188C244.577 92.1188 244.719 96.0043 246.018 95C247.316 93.9956 247.742 87.371 246.596 86.5087C245.439 85.6463 244.577 90.1101 244.577 92.129V92.1188Z" fill="#263238" stroke="#263238" stroke-width="1.17" stroke-linecap="round" stroke-linejoin="round"/>
<path d="M269.574 92.1188C269.574 92.1188 269.716 96.0043 271.015 95C272.313 93.9956 272.739 87.371 271.593 86.5087C270.437 85.6463 269.574 90.1101 269.574 92.129V92.1188Z" fill="#263238" stroke="#263238" stroke-width="1.17" stroke-linecap="round" stroke-linejoin="round"/>
<path d="M244.577 88.9536C244.577 88.9536 245.013 89.2985 245.003 89.4811C246.88 90.4956 251.192 92.3623 258.171 92.7376C264.167 93.0623 269.3 90.9318 272.344 89.2579C272.324 88.7304 272.313 88.426 272.313 88.426C272.141 83.8913 268.763 80.8681 264.593 79.7014C260.606 78.5956 256.031 78.7782 252.176 80.3202C250.187 81.1217 248.371 82.3188 247.042 84.0231C246.596 84.5913 243.867 88.3855 244.577 88.9434V88.9536Z" fill="#4C4C4C" stroke="#263238" stroke-width="1.17" stroke-linecap="round" stroke-linejoin="round"/>
<path d="M245.023 89.2075C245.023 89.2075 249.863 90.5669 258.192 90.1713C266.521 89.7858 272.313 89.2075 272.313 89.2075C272.313 89.2075 266.632 94.9698 258.313 95.3553C249.315 95.7713 245.034 89.2075 245.034 89.2075H245.023Z" fill="#4C4C4C" stroke="#263238" stroke-width="1.17" stroke-linecap="round" stroke-linejoin="round"/>
<path d="M223.76 147.409L225.109 157.107L235.589 159.633L246.251 155.362L245.48 146.638L223.76 147.409Z" fill="#263238" stroke="#263238" stroke-width="1.17" stroke-linecap="round" stroke-linejoin="round"/>
<path d="M236.755 155.271C236.755 154.257 235.934 153.425 234.909 153.425C233.884 153.425 233.062 154.247 233.062 155.271C233.062 156.296 233.884 157.118 234.909 157.118C235.934 157.118 236.755 156.296 236.755 155.271Z" fill="#4C4C4C" stroke="#263238" stroke-width="1.17" stroke-linecap="round" stroke-linejoin="round"/>
<path d="M287.47 193.548H225.961V203.226H287.47V193.548Z" fill="#4C4C4C" stroke="#263238" stroke-width="1.17" stroke-linecap="round" stroke-linejoin="round"/>
<path d="M237.78 194.116H224.399C222.903 194.116 221.69 195.329 221.69 196.825V203.368C221.69 204.864 222.903 206.077 224.399 206.077H237.78C239.276 206.077 240.489 204.864 240.489 203.368V196.825C240.489 195.329 239.276 194.116 237.78 194.116Z" fill="#4C4C4C" stroke="#263238" stroke-width="1.17" stroke-linecap="round" stroke-linejoin="round"/>
<path d="M286.76 194.116H273.379C271.883 194.116 270.67 195.329 270.67 196.825V203.368C270.67 204.864 271.883 206.077 273.379 206.077H286.76C288.256 206.077 289.468 204.864 289.468 203.368V196.825C289.468 195.329 288.256 194.116 286.76 194.116Z" fill="#4C4C4C" stroke="#263238" stroke-width="1.17" stroke-linecap="round" stroke-linejoin="round"/>
<path d="M264.401 194.116H251.02V202.658H264.401V194.116Z" fill="white" stroke="#263238" stroke-width="1.17" stroke-linecap="round" stroke-linejoin="round"/>
<path d="M208.867 173.329C208.867 173.329 200.325 172.761 197.19 167.354" stroke="#263238" stroke-width="1.17" stroke-linecap="round" stroke-linejoin="round"/>
<path d="M303.844 148.271C311.632 148.271 317.945 141.64 317.945 133.46C317.945 125.279 311.632 118.648 303.844 118.648C296.056 118.648 289.742 125.279 289.742 133.46C289.742 141.64 296.056 148.271 303.844 148.271Z" fill="#6BCC70" stroke="#263238" stroke-width="1.17" stroke-linecap="round" stroke-linejoin="round"/>
<path d="M303.844 135.844C309.94 135.844 314.882 131.415 314.882 125.952C314.882 120.49 309.94 116.061 303.844 116.061C297.748 116.061 292.807 120.49 292.807 125.952C292.807 131.415 297.748 135.844 303.844 135.844Z" fill="#6BCC70" stroke="#263238" stroke-width="1.17" stroke-linecap="round" stroke-linejoin="round"/>
<path d="M303.844 128.579C309.94 128.579 314.882 124.151 314.882 118.688C314.882 113.225 309.94 108.797 303.844 108.797C297.748 108.797 292.807 113.225 292.807 118.688C292.807 124.151 297.748 128.579 303.844 128.579Z" fill="white" stroke="#263238" stroke-width="1.17" stroke-linecap="round" stroke-linejoin="round"/>
<path d="M286.111 97.3534C286.111 97.3534 286.293 111.942 287.044 116.243C287.795 120.545 290.788 126.155 294.896 126.155C299.005 126.155 302.941 124.653 302.941 124.653C302.941 124.653 307.801 127.271 312.477 126.52C317.154 125.769 316.403 119.226 316.403 116.416C316.403 113.606 315.846 92.4737 315.846 92.4737C315.846 92.4737 316.221 90.4143 314.344 90.0389C312.477 89.6636 311.534 89.6636 311.534 89.6636V85.1694C311.534 85.1694 310.783 83.6679 308.359 83.6679C305.934 83.6679 305.741 84.2259 305.741 84.2259V80.1071C305.741 80.1071 303.722 76.8302 301.064 78.423C299.198 79.5491 299.198 81.4158 299.198 81.4158L299.015 85.3418C299.015 85.3418 294.521 83.6578 294.156 86.2752C293.78 88.8926 293.03 104.982 293.03 104.982C293.03 104.982 292.472 99.9302 291.528 97.4955C290.595 95.0607 286.101 95.0607 286.101 97.3129L286.111 97.3534Z" fill="white" stroke="#263238" stroke-width="1.17" stroke-linecap="round" stroke-linejoin="round"/>
<path d="M299.025 85.3823L299.391 102.598" stroke="#263238" stroke-width="1.17" stroke-linecap="round" stroke-linejoin="round"/>
<path d="M305.751 84.2666L305.944 102.781" stroke="#263238" stroke-width="1.17" stroke-linecap="round" stroke-linejoin="round"/>
<path d="M311.554 89.6836L311.179 102.598" stroke="#263238" stroke-width="1.17" stroke-linecap="round" stroke-linejoin="round"/>
<path d="M296.591 102.406L313.614 103.156" stroke="#263238" stroke-width="1.17" stroke-linecap="round" stroke-linejoin="round"/>
<path d="M293.04 105.023C293.04 105.023 293.02 107.508 294.866 108.665C296.712 109.822 300.872 112.824 301.339 117.674" stroke="#263238" stroke-width="1.17" stroke-linecap="round" stroke-linejoin="round"/>
<path d="M138.451 381.483H123.994L143.27 247.042H157.736L138.451 381.483Z" fill="#263238" stroke="#263238" stroke-width="1.17" stroke-miterlimit="10"/>
<path d="M167.384 381.483H181.841L162.555 247.042H148.099L167.384 381.483Z" fill="white" stroke="#263238" stroke-width="1.17" stroke-miterlimit="10"/>
<path d="M343.693 381.483H329.236L348.522 247.042H362.978L343.693 381.483Z" fill="#263238" stroke="#263238" stroke-width="1.17" stroke-miterlimit="10"/>
<path d="M372.626 381.483H387.083L367.797 247.042H353.341L372.626 381.483Z" fill="white" stroke="#263238" stroke-width="1.17" stroke-miterlimit="10"/>
<path d="M382.73 225.971H106.859V252.713H382.73V225.971Z" fill="#6BCC70" stroke="#263238" stroke-width="1.17" stroke-miterlimit="10"/>
<path d="M389.457 225.971H113.586V252.713H389.457V225.971Z" fill="#6BCC70" stroke="#263238" stroke-width="1.17" stroke-miterlimit="10"/>
<path d="M118.1 252.713H141.524L153.617 225.971H130.203L118.1 252.713Z" fill="#263238"/>
<path d="M210.783 225.971H187.369L175.266 252.713H198.68L210.783 225.971Z" fill="#263238"/>
<path d="M382.284 225.971H358.859L346.767 252.713H370.181L382.284 225.971Z" fill="#263238"/>
<path d="M325.117 225.971H301.703L289.6 252.713H313.014L325.117 225.971Z" fill="#263238"/>
<path d="M267.95 225.971H244.536L232.433 252.713H255.847L267.95 225.971Z" fill="#263238"/>
<path d="M387.945 237.831H342.293" stroke="#263238" stroke-width="1.17" stroke-miterlimit="10"/>
<path d="M387.153 242.305H379.94" stroke="#263238" stroke-width="1.17" stroke-miterlimit="10"/>
<path d="M112.419 241.188H158.071" stroke="#263238" stroke-width="1.17" stroke-miterlimit="10"/>
<path d="M113.221 236.157H170.895" stroke="#263238" stroke-width="1.17" stroke-miterlimit="10"/>
<path d="M464.752 375.619H386.494V381.493H464.752V375.619Z" fill="#263238" stroke="#263238" stroke-width="1.17" stroke-linecap="round" stroke-linejoin="round"/>
<path d="M451.543 375.446H399.702L420.022 264.917H431.222L451.543 375.446Z" fill="#6BCC70" stroke="#263238" stroke-width="1.17" stroke-linecap="round" stroke-linejoin="round"/>
<path d="M412.475 305.994H438.78L436.264 292.298H414.991L412.475 305.994Z" fill="white" stroke="#263238" stroke-width="1.17" stroke-linecap="round" stroke-linejoin="round"/>
<path d="M443.753 357.003L445.062 364.561" stroke="#263238" stroke-width="1.17" stroke-linecap="round" stroke-linejoin="round"/>
<path d="M428.95 271.025L442.118 347.487" stroke="#263238" stroke-width="1.17" stroke-linecap="round" stroke-linejoin="round"/>
<path d="M90.2627 381.482H497.064" stroke="#263238" stroke-width="1.17" stroke-linecap="round" stroke-linejoin="round"/>
</g>
</g>
<defs>
<clipPath id="clip0_2527_10906">
<rect width="575" height="422" fill="white" transform="translate(0 0.5)"/>
</clipPath>
<clipPath id="clip1_2527_10906">
<rect width="420" height="422" fill="white" transform="translate(77.5 0.5)"/>
</clipPath>
</defs>
</svg>
