<svg xmlns="http://www.w3.org/2000/svg" fill="none" viewBox="0 0 22 20"><path fill="currentColor" d="M11 0C8.805 0 6.842.765 5.452 2H4.25a2.251 2.251 0 0 0-2.238 2.481L3.462 18.5H1.25a.751.751 0 1 0 0 1.5h19.5a.751.751 0 1 0 0-1.5h-2.212l1.45-14.019A2.252 2.252 0 0 0 17.75 2h-1.202C15.158.765 13.195 0 11 0Zm0 1.5c1.966 0 3.693.726 4.768 1.784a.75.75 0 0 0 .527.216h1.455c.213 0 .414.09.556.247v.001c.143.158.21.368.19.58L17.028 18.5H4.971L3.504 4.328A.75.75 0 0 1 4.25 3.5h1.455a.75.75 0 0 0 .526-.216C7.307 2.226 9.034 1.5 11 1.5Zm-3.75 5a.75.75 0 1 0 0 1.5h7.5a.75.75 0 1 0 0-1.5h-7.5Zm0 3.5a.751.751 0 1 0 0 1.5h7.5a.751.751 0 1 0 0-1.5h-7.5Z"/></svg>
