<svg xmlns="http://www.w3.org/2000/svg" fill="none" viewBox="0 0 14 16"><path fill="currentColor" d="M7.016.666a.5.5 0 0 0-.35.129S4.163 3 1.166 3a.5.5 0 0 0-.5.5v4.086c0 2.226 1.03 5.89 6.14 8.041a.5.5 0 0 0 .388 0c5.11-2.152 6.14-5.815 6.14-8.04V3.5a.5.5 0 0 0-.5-.5C9.835 3 7.333.795 7.333.795a.5.5 0 0 0-.318-.129ZM7 1.81c.687.553 2.704 1.97 5.333 2.149v3.628c0 1.914-.735 5.002-5.333 7.022-4.598-2.02-5.333-5.108-5.333-7.022V3.958c2.63-.18 4.645-1.596 5.333-2.15Zm0 2.19c-.625 0-1.157.253-1.499.637A2.043 2.043 0 0 0 5 6c0 .486.16.979.501 1.363C5.843 7.747 6.375 8 7 8c.625 0 1.157-.253 1.499-.637.341-.384.5-.877.5-1.363 0-.487-.159-.98-.5-1.364C8.157 4.252 7.625 4 6.999 4Zm0 1c.375 0 .593.123.751.301.159.179.249.436.249.7 0 .263-.09.52-.249.699-.158.178-.376.3-.751.3s-.593-.122-.751-.3a1.064 1.064 0 0 1-.25-.7c0-.263.091-.52.25-.699.158-.178.376-.3.75-.3ZM5.167 8.667C4.527 8.666 4 9.194 4 9.833v.333c0 .153.018.298.05.434a.5.5 0 0 0 .135.238A3.999 3.999 0 0 0 7 12a3.999 3.999 0 0 0 2.815-1.162.5.5 0 0 0 .134-.237c.033-.137.05-.282.05-.435v-.333c0-.64-.526-1.167-1.166-1.167H5.166Zm0 1h3.666c.094 0 .167.073.167.167v.333c0 .015-.004.025-.005.04C8.462 10.685 7.774 11 7 11s-1.462-.313-1.996-.795c0-.014-.004-.024-.004-.039v-.333c0-.094.073-.167.167-.167Z"/></svg>
