<svg xmlns="http://www.w3.org/2000/svg" fill="currentColor" viewBox="0 0 24 24"><g clip-path="url(#a)"><path fill="currentColor" d="M7.238 3.49a.75.75 0 0 0-.738.76v.25H5.396a2.257 2.257 0 0 0-2.171 1.658.75.75 0 0 0-.024.136s-.049.51-.236.982c-.094.237-.22.446-.34.564-.121.117-.2.16-.375.16a.75.75 0 0 0-.747.686c-.061.723.182 1.384.628 1.74.446.355.92.416 1.277.474.33.054.537.113.584.13.002.015.009.013-.008.112-.131.804-.528 1.978-.881 3.228-.353 1.25-.67 2.591-.566 3.887.104 1.284 1.21 2.243 2.475 2.243H7.39c.858 0 1.602-.637 1.73-1.488l.527-3.512h2.603a3.262 3.262 0 0 0 3.25-3.25V10.5h3.53c.75 0 1.422-.485 1.66-1.197l.12-.36a.248.248 0 0 1 .15-.156l.723-.267c.488-.18.817-.651.817-1.172V5.75c0-.682-.568-1.25-1.25-1.25h-.75v-.25a.75.75 0 1 0-1.5 0v.25H8v-.25a.75.75 0 0 0-.762-.76ZM5.396 6h1.731a.75.75 0 0 0 .243 0h12.257a.75.75 0 0 0 .243 0H21v1.174l-.558.206a1.751 1.751 0 0 0-1.055 1.089l-.12.36a.246.246 0 0 1-.238.171h-6.695a3.757 3.757 0 0 0-3.708 3.192l-.99 6.597A.239.239 0 0 1 7.39 19H5.012c-.512 0-.94-.378-.98-.864-.077-.954.176-2.163.514-3.359.338-1.195.75-2.364.919-3.393.052-.32.047-.636-.065-.934a1.422 1.422 0 0 0-.563-.682c-.452-.283-.863-.295-1.187-.348-.284-.047-.44-.107-.515-.148.201-.1.392-.217.538-.36.339-.331.543-.72.686-1.083a4.853 4.853 0 0 0 .32-1.294A.742.742 0 0 1 5.397 6Zm6.938 4.5H14v1.75A1.74 1.74 0 0 1 12.25 14H9.872l.237-1.585a2.25 2.25 0 0 1 .228-.692 2.87 2.87 0 0 0 1.731 1.254.75.75 0 1 0 .364-1.455c-.566-.141-.803-.45-.963-.845.267-.111.558-.177.865-.177Z"/></g><defs><clipPath id="a"><path fill="#fff" d="M0 0h24v24H0z"/></clipPath></defs></svg>
