<svg xmlns="http://www.w3.org/2000/svg" fill="currentColor" viewBox="0 0 24 24"><path fill="currentColor" fill-opacity=".87" d="M11.976 2a.75.75 0 0 0-.44.161l-7.1 5.6C3.547 8.46 3 9.55 3 10.7v9.549c0 .317.118.654.357.892.24.24.576.358.893.358h5c.317 0 .654-.119.893-.358.239-.238.357-.575.357-.892v-5c0-.141.11-.25.25-.25h2.5c.14 0 .25.109.25.25v5c0 .317.118.654.357.892.24.24.576.358.893.358h5c.317 0 .654-.119.893-.358.239-.238.357-.575.357-.892V10.7c0-1.122-.494-2.25-1.456-2.955l-7.08-5.584A.75.75 0 0 0 11.977 2ZM12 3.705l6.636 5.233a.902.902 0 0 0 .02.017c.538.394.844 1.067.844 1.745V20H15v-4.75c0-.96-.79-1.75-1.75-1.75h-2.5c-.96 0-1.75.79-1.75 1.75V20H4.5v-9.3c0-.65.353-1.36.863-1.76l.001-.002L12 3.705Z"/></svg>
