<svg  viewBox="0 0 25 25" fill="currentColor" xmlns="http://www.w3.org/2000/svg">
<path d="M12.5002 2.0835C7.61787 2.0835 3.646 6.05537 3.646 10.9377C3.646 13.0397 4.40068 15.0798 5.77777 16.6918C5.93506 16.8705 9.646 21.0871 10.8856 22.2689C11.3382 22.7007 11.9189 22.9168 12.5002 22.9168C13.0814 22.9168 13.6621 22.7007 14.1153 22.2689C15.5564 20.8944 19.0757 16.8601 19.2299 16.683C20.5996 15.0798 21.3543 13.0397 21.3543 10.9377C21.3543 6.05537 17.3825 2.0835 12.5002 2.0835ZM16.4064 11.7189C16.4064 12.0064 16.1731 12.2397 15.8856 12.2397H13.8022V14.3231C13.8022 14.6106 13.5689 14.8439 13.2814 14.8439H11.7189C11.4314 14.8439 11.1981 14.6106 11.1981 14.3231V12.2397H9.11475C8.82725 12.2397 8.59391 12.0064 8.59391 11.7189V10.1564C8.59391 9.86891 8.82725 9.63558 9.11475 9.63558H11.1981V7.55225C11.1981 7.26475 11.4314 7.03141 11.7189 7.03141H13.2814C13.5689 7.03141 13.8022 7.26475 13.8022 7.55225V9.63558H15.8856C16.1731 9.63558 16.4064 9.86891 16.4064 10.1564V11.7189Z" fill="currentColor"/>
</svg>
