<svg xmlns="http://www.w3.org/2000/svg" fill="currentColor" viewBox="0 0 37 37"><path fill="currentColor" d="M9.125 5A4.142 4.142 0 0 0 5 9.125v18.75A4.142 4.142 0 0 0 9.125 32h18.75A4.142 4.142 0 0 0 32 27.875V9.125A4.142 4.142 0 0 0 27.875 5H9.125Zm0 2.25h18.75c1.049 0 1.875.826 1.875 1.875v18.75a1.858 1.858 0 0 1-1.875 1.875H9.125a1.858 1.858 0 0 1-1.875-1.875V9.125c0-1.049.826-1.875 1.875-1.875ZM18.5 11a1.5 1.5 0 1 0 0 3 1.5 1.5 0 0 0 0-3Zm-.018 5.234a1.125 1.125 0 0 0-1.107 1.141v8.25a1.125 1.125 0 1 0 2.25 0v-8.25a1.124 1.124 0 0 0-1.143-1.141Z"/></svg>
