<svg xmlns="http://www.w3.org/2000/svg" fill="none" viewBox="0 0 21 21"><path fill="currentColor" d="M11 0C5.493 0 1 4.493 1 10c0 1.664.453 3.171 1.113 4.532l-1.084 3.866a.69.69 0 0 0-.006.02c-.225.9.66 1.784 1.56 1.56a.735.735 0 0 0 .02-.006l3.864-1.083C7.844 19.59 9.356 20 11 20c5.507 0 10-4.493 10-10S16.507 0 11 0Zm0 1.5c4.693 0 8.5 3.807 8.5 8.5s-3.807 8.5-8.5 8.5c-1.529 0-2.893-.365-4.136-1.056a.75.75 0 0 0-.566-.066L2.58 18.42l1.043-3.719a.75.75 0 0 0-.056-.548C2.91 12.89 2.5 11.514 2.5 10c0-4.693 3.807-8.5 8.5-8.5Zm0 3c-1.65 0-3 1.35-3 3a.75.75 0 1 0 1.5 0c0-.85.65-1.5 1.5-1.5s1.5.65 1.5 1.5c0 .782-.32 1.01-.886 1.54-.567.528-1.364 1.354-1.364 2.71a.75.75 0 1 0 1.5 0c0-.844.329-1.093.887-1.614C13.195 9.615 14 8.818 14 7.5c0-1.65-1.35-3-3-3Zm0 9a1 1 0 1 0 0 2 1 1 0 0 0 0-2Z"/></svg>
