<svg xmlns="http://www.w3.org/2000/svg" fill="none" viewBox="0 0 18 20"><path fill="currentColor" d="M3 0A2.511 2.511 0 0 0 .5 2.5v7.195c0 .537.192 1.056.542 1.464L3.5 14.027V16h-.25a.751.751 0 1 0 0 1.5h12a.751.751 0 1 0 0-1.5H15v-1.973l2.458-2.868c.35-.408.542-.927.542-1.464V2.5C18 1.128 16.872 0 15.5 0A2.511 2.511 0 0 0 13 2.5v3.55c-.364.087-.714.237-.99.53L9.36 9.258a.76.76 0 0 0-.023.025c-.038.042-.052.098-.087.142-.035-.044-.05-.1-.087-.142a.76.76 0 0 0-.023-.025l-2.65-2.68c-.276-.292-.626-.442-.99-.528V2.5C5.5 1.128 4.372 0 3 0Zm0 1.5c.561 0 1 .439 1 1v3.76a1.941 1.941 0 0 0-.585.496 2.022 2.022 0 0 0 .094 2.533l1.86 1.973a.75.75 0 0 0 1.091-1.03L4.63 8.293a.508.508 0 0 1-.016-.637.502.502 0 0 1 .798-.034L8.05 10.29c.29.322.451.739.451 1.172V16H5v-2.25a.75.75 0 0 0-.18-.488l-2.64-3.08A.748.748 0 0 1 2 9.696V2.5c0-.561.439-1 1-1Zm12.5 0c.561 0 1 .439 1 1v7.195c0 .18-.064.352-.18.488l-2.64 3.079a.75.75 0 0 0-.18.488V16H10v-4.538c0-.433.161-.85.451-1.172l2.637-2.668a.502.502 0 0 1 .798.034.508.508 0 0 1-.017.637l-1.829 1.94a.753.753 0 0 0 .031 1.06.75.75 0 0 0 1.06-.031l1.86-1.973a2.022 2.022 0 0 0 .094-2.533 1.941 1.941 0 0 0-.585-.496V2.5c0-.561.439-1 1-1Zm-12.25 17a.751.751 0 1 0 0 1.5h12a.751.751 0 1 0 0-1.5h-12Z"/></svg>
