<svg width="16" height="16" viewBox="0 0 16 16" fill="none" xmlns="http://www.w3.org/2000/svg">
    <path fill-rule="evenodd" clip-rule="evenodd" d="M12.8337 3.16753C11.0551 1.395 8.1779 1.39586 6.40683 3.16693L6.40597 3.16779C5.17078 4.39699 4.79632 6.16809 5.27783 7.733C5.3323 7.91002 5.28446 8.10264 5.1535 8.2336L2.0235 11.3636C1.97973 11.4097 1.9204 11.5048 1.87762 11.6332C1.8341 11.7637 1.82588 11.874 1.83471 11.9346L1.83529 11.9385L2.03467 13.3875C2.0534 13.5048 2.12355 13.6435 2.24181 13.7623C2.36097 13.882 2.49648 13.949 2.60811 13.9647L4.06543 14.1653C4.13162 14.1749 4.24434 14.167 4.3708 14.1261C4.49814 14.0848 4.58719 14.027 4.62797 13.985L4.63339 13.9794L7.77343 10.8461C7.90498 10.7148 8.09848 10.6674 8.27585 10.7228C9.83059 11.2091 11.6023 10.8309 12.8401 9.59948C14.611 7.82814 14.6109 4.93878 12.8337 3.16753ZM5.70015 2.4594C7.86245 0.297567 11.3716 0.298569 13.5396 2.45923C15.7089 4.62119 15.7089 8.1449 13.5468 10.3069L13.546 10.3078C12.1148 11.732 10.0967 12.2206 8.27272 11.7606L5.34217 14.6849C5.15663 14.8745 4.91047 15.0024 4.67909 15.0774C4.44626 15.1528 4.17659 15.1916 3.92345 15.1551C3.92268 15.155 3.9219 15.1549 3.92112 15.1548L2.47178 14.9554C2.10352 14.9042 1.77536 14.7112 1.53308 14.4678C1.29067 14.2243 1.101 13.8977 1.04568 13.5356L1.04456 13.5282L0.845176 12.0789C0.845067 12.0781 0.844958 12.0774 0.844851 12.0766C0.807598 11.8178 0.852672 11.5457 0.928934 11.3169C1.00553 11.0871 1.13177 10.8465 1.30782 10.6651L1.31302 10.6598L4.24023 7.73265C3.7861 5.90553 4.26651 3.88639 5.70015 2.4594Z" fill="#1F95EB"/>
    <path fill-rule="evenodd" clip-rule="evenodd" d="M4.23971 11.3065C4.43497 11.1112 4.75155 11.1112 4.94682 11.3065L6.48015 12.8398C6.67541 13.0351 6.67541 13.3517 6.48015 13.5469C6.28489 13.7422 5.9683 13.7422 5.77304 13.5469L4.23971 12.0136C4.04445 11.8183 4.04445 11.5017 4.23971 11.3065Z" fill="#1F95EB"/>
    <path fill-rule="evenodd" clip-rule="evenodd" d="M9.66663 5.83337C9.39048 5.83337 9.16663 6.05723 9.16663 6.33337C9.16663 6.60952 9.39048 6.83337 9.66663 6.83337C9.94277 6.83337 10.1666 6.60952 10.1666 6.33337C10.1666 6.05723 9.94277 5.83337 9.66663 5.83337ZM8.16663 6.33337C8.16663 5.50495 8.8382 4.83337 9.66663 4.83337C10.4951 4.83337 11.1666 5.50495 11.1666 6.33337C11.1666 7.1618 10.4951 7.83337 9.66663 7.83337C8.8382 7.83337 8.16663 7.1618 8.16663 6.33337Z" fill="#1F95EB"/>
</svg>
