<svg  viewBox="0 0 24 24" fill="currentColor" xmlns="http://www.w3.org/2000/svg">
    <path d="M5.59635 0C3.99099 0 2.56414 1.05372 2.09245 2.58854L0.800779 6.78516C0.215932 8.68753 1.6779 10.6667 3.66797 10.6667H18.4036C20.0086 10.6667 21.4363 9.61277 21.9076 8.07812V8.07682L23.1979 3.88281V3.88151C23.7828 1.9792 22.3208 0 20.3307 0H5.59635ZM5.59635 2H20.3307C21.0309 2 21.4925 2.62504 21.2865 3.29427L19.9948 7.49089C19.779 8.19428 19.1396 8.66667 18.4036 8.66667H3.66797C2.96783 8.66667 2.50616 8.04162 2.71224 7.3724L4.0039 3.17708C4.22021 2.47324 4.86039 2 5.59635 2ZM23.1328 8.59635C22.7268 9.79702 21.9087 10.7583 20.8607 11.349L19.9961 14.1562C19.7794 14.8603 19.1403 15.3333 18.4036 15.3333H3.66797C3.3473 15.3333 3.05395 15.1851 2.86328 14.9271C2.67261 14.6691 2.61757 14.3457 2.71224 14.0391L3.34505 11.9805C2.65838 11.9305 2.01016 11.7242 1.4375 11.3789L0.800779 13.4505C0.518112 14.3699 0.683873 15.3406 1.25521 16.1146C1.82654 16.8892 2.70597 17.3333 3.66797 17.3333H18.4036C20.0236 17.3333 21.4322 16.2935 21.9089 14.7448L23.2005 10.5495C23.4019 9.89415 23.3708 9.21369 23.1328 8.59635ZM23.1328 15.263C22.7268 16.4637 21.9087 17.425 20.8607 18.0156L19.9961 20.8229C19.7794 21.5269 19.1403 22 18.4036 22H3.66797C3.3473 22 3.05395 21.8518 2.86328 21.5938C2.67261 21.3358 2.61757 21.0124 2.71224 20.7057L3.34505 18.6471C2.65838 18.5971 2.01016 18.3909 1.4375 18.0456L0.800779 20.1172C0.518112 21.0365 0.683873 22.0072 1.25521 22.7812C1.82654 23.5559 2.70597 24 3.66797 24H18.4036C20.0236 24 21.4322 22.9601 21.9089 21.4115L23.2005 17.2161C23.4019 16.5608 23.3708 15.8804 23.1328 15.263Z"/>
</svg>
