<svg xmlns="http://www.w3.org/2000/svg" fill="none" viewBox="0 0 18 18"><path fill="currentColor" d="M2.75 0C1.24 0 0 1.24 0 2.75v12.5C0 16.76 1.24 18 2.75 18h12.5c1.51 0 2.75-1.24 2.75-2.75V2.75C18 1.24 16.76 0 15.25 0H2.75Zm0 1.5h12.5c.7 0 1.25.55 1.25 1.25v12.5c0 .7-.55 1.25-1.25 1.25H2.75c-.7 0-1.25-.55-1.25-1.25V2.75c0-.7.55-1.25 1.25-1.25Zm11.485 1.493a.75.75 0 0 0-.08.007H8.75a.75.75 0 1 0 0 1.5h3.69l-7.72 7.72a.75.75 0 1 0 1.06 1.06l7.72-7.72v3.69a.751.751 0 1 0 1.5 0V3.845a.75.75 0 0 0-.765-.852Z"/></svg>
