<svg xmlns="http://www.w3.org/2000/svg" fill="none" viewBox="0 0 14 10"><path fill="currentColor" d="M2.167.666c-.57 0-1.06.232-1.374.585a1.87 1.87 0 0 0-.46 1.248c0 .445.146.896.46 1.249.314.353.804.585 1.374.585.569 0 1.06-.232 1.373-.585A1.87 1.87 0 0 0 4 2.499a1.87 1.87 0 0 0-.46-1.248C3.226.898 2.736.666 2.167.666ZM5.5.999a.5.5 0 1 0 0 1h7.667a.5.5 0 1 0 0-1H5.5Zm-3.333.667c.319 0 .495.102.626.249.13.147.207.362.207.584a.892.892 0 0 1-.207.585c-.13.147-.307.249-.626.249-.32 0-.496-.102-.627-.249a.892.892 0 0 1-.207-.585c0-.222.077-.437.207-.584.13-.147.307-.249.627-.249ZM5.5 2.999a.5.5 0 1 0 0 1h5.667a.5.5 0 1 0 0-1H5.5ZM2.167 5.666c-.57 0-1.06.232-1.374.585a1.87 1.87 0 0 0-.46 1.248c0 .445.146.896.46 1.249.314.353.804.585 1.374.585.569 0 1.06-.232 1.373-.585A1.87 1.87 0 0 0 4 7.499a1.87 1.87 0 0 0-.46-1.248c-.314-.353-.804-.585-1.373-.585Zm3.333.333a.5.5 0 1 0 0 1h7.667a.5.5 0 1 0 0-1H5.5Zm-3.333.667c.319 0 .495.102.626.249.13.147.207.362.207.584a.892.892 0 0 1-.207.585c-.13.147-.307.249-.626.249-.32 0-.496-.102-.627-.249a.892.892 0 0 1-.207-.585c0-.222.077-.437.207-.584.13-.147.307-.249.627-.249ZM5.5 7.999a.5.5 0 1 0 0 1h5.667a.5.5 0 1 0 0-1H5.5Z"/></svg>
