<svg xmlns="http://www.w3.org/2000/svg" fill="none" viewBox="0 0 12 13"><path fill="currentColor" d="M6 .668c-2.203 0-4 1.797-4 4 0 .986.585 2.082 1.248 3.172a30.88 30.88 0 0 0 1.913 2.743c.417.538 1.261.538 1.678 0A30.88 30.88 0 0 0 8.753 7.84C9.416 6.75 10 5.654 10 4.668c0-2.203-1.797-4-4-4Zm0 1c1.663 0 3 1.337 3 3 0 .517-.472 1.617-1.102 2.652a30.135 30.135 0 0 1-1.849 2.65c-.033.043-.064.043-.098 0a30.135 30.135 0 0 1-1.849-2.65C3.472 6.285 3 5.185 3 4.668c0-1.663 1.337-3 3-3Zm0 2a1 1 0 1 0 0 2 1 1 0 0 0 0-2ZM1.908 9.001c-.46 0-.88.272-1.066.693l-.74 1.667A1.164 1.164 0 0 0 1.168 13h9.664c.397 0 .763-.198.979-.53.216-.333.249-.748.088-1.11l-.74-1.667a1.168 1.168 0 0 0-1.067-.693H9.007c-.213.322-.443.655-.692 1h1.777c.066 0 .126.039.152.1l.74 1.666a.162.162 0 0 1-.012.159.162.162 0 0 1-.14.075H1.169a.163.163 0 0 1-.14-.076.163.163 0 0 1-.013-.158l.741-1.667a.167.167 0 0 1 .152-.099h1.776a28.955 28.955 0 0 1-.69-1H1.908Z"/></svg>
