<svg xmlns="http://www.w3.org/2000/svg" fill="currentColor" viewBox="0 0 21 20"><path fill="currentColor" d="M10.75 1.667A3.343 3.343 0 0 0 7.417 5v1.667H5.958a1.885 1.885 0 0 0-1.875 1.875v7.916c0 1.029.847 1.875 1.875 1.875h9.584a1.885 1.885 0 0 0 1.875-1.875V8.542a1.885 1.885 0 0 0-1.875-1.875h-1.459V5c0-1.833-1.5-3.333-3.333-3.333Zm0 1.25c1.158 0 2.083.925 2.083 2.083v1.667H8.667V5c0-1.158.925-2.083 2.083-2.083Zm-4.792 5h9.584c.352 0 .625.272.625.625v7.916a.616.616 0 0 1-.625.625H5.958a.616.616 0 0 1-.625-.625V8.542c0-.353.273-.625.625-.625Zm1.875 3.75a.833.833 0 1 0 0 1.666.833.833 0 0 0 0-1.666Zm2.917 0a.833.833 0 1 0 0 1.666.833.833 0 0 0 0-1.666Zm2.917 0a.833.833 0 1 0 0 1.667.833.833 0 0 0 0-1.667Z"/></svg>
