<svg xmlns="http://www.w3.org/2000/svg" fill="currentColor" viewBox="0 0 21 20"><path fill="currentColor" d="M10.5 1.667a8.319 8.319 0 0 0-6.532 3.166.625.625 0 1 0 .98.777A7.057 7.057 0 0 1 10.5 2.917 7.074 7.074 0 0 1 17.583 10a7.074 7.074 0 0 1-7.083 7.083 7.057 7.057 0 0 1-5.552-2.692.624.624 0 1 0-.98.776 8.319 8.319 0 0 0 6.532 3.166c4.595 0 8.333-3.738 8.333-8.333 0-4.595-3.738-8.333-8.333-8.333ZM5.28 6.869a.625.625 0 0 0-.43.19l-2.5 2.5a.625.625 0 0 0 0 .883l2.5 2.5a.625.625 0 1 0 .884-.884L4.3 10.624l8.492-.007a.624.624 0 1 0-.001-1.25l-8.49.007 1.433-1.432a.625.625 0 0 0-.455-1.073Z"/></svg>
