<svg  viewBox="0 0 24 24" fill="currentColor" xmlns="http://www.w3.org/2000/svg">
<g clip-path="url(#clip0_1021_4240)">
<path d="M9.23828 3.98922C9.04617 3.99253 8.86266 4.06943 8.72559 4.20407L3.30859 8.14352C3.21299 8.21312 3.1352 8.30434 3.08157 8.40974C3.02794 8.51513 2.99999 8.63171 3 8.74997V19.25C3.00001 19.3883 3.0383 19.524 3.11062 19.642C3.18295 19.7599 3.2865 19.8556 3.40982 19.9184C3.53313 19.9811 3.67141 20.0086 3.80935 19.9976C3.94729 19.9867 4.07952 19.9378 4.19141 19.8564L9.25 16.1777L14.2197 19.791L14.2236 19.7949C14.3637 19.9327 14.5523 20.0099 14.7488 20.0101C14.9453 20.0103 15.134 19.9334 15.2744 19.7959L20.6914 15.8564C20.787 15.7868 20.8648 15.6956 20.9184 15.5902C20.9721 15.4848 21 15.3682 21 15.25V4.74997C21 4.61159 20.9617 4.47592 20.8894 4.35795C20.817 4.23999 20.7135 4.14433 20.5902 4.08156C20.4669 4.01879 20.3286 3.99135 20.1906 4.00229C20.0527 4.01322 19.9205 4.0621 19.8086 4.14352L14.75 7.82223L9.78027 4.20895C9.77898 4.20764 9.77767 4.20634 9.77637 4.20504C9.70548 4.13517 9.6214 4.0801 9.52902 4.04305C9.43664 4.00599 9.3378 3.9877 9.23828 3.98922ZM19.5 6.22262V14.8681L15.5 17.7773V9.1318L19.5 6.22262ZM8.5 6.2236V14.8681L4.5 17.7773V9.1318L8.5 6.2236ZM10 6.2236L14 9.1318V17.7763L10 14.8681V6.2236Z" fill="currentColor"/>
</g>
<defs>
<clipPath id="clip0_1021_4240">
<rect width="100" height="100" />
</clipPath>
</defs>
</svg>
