<svg width="44" height="50" viewBox="0 0 44 50" fill="none" xmlns="http://www.w3.org/2000/svg">
    <path d="M22 0C10.2825 0 0.75 9.5325 0.75 21.25C0.75 26.295 2.56125 31.1912 5.86625 35.06C6.24375 35.4888 15.15 45.6087 18.125 48.445C19.2113 49.4813 20.605 50 22 50C23.395 50 24.7887 49.4813 25.8762 48.445C29.335 45.1463 37.7812 35.4637 38.1513 35.0387C41.4388 31.1912 43.25 26.295 43.25 21.25C43.25 9.5325 33.7175 0 22 0ZM22 27.5C18.5487 27.5 15.75 24.7013 15.75 21.25C15.75 17.7987 18.5487 15 22 15C25.4513 15 28.25 17.7987 28.25 21.25C28.25 24.7013 25.4513 27.5 22 27.5Z" fill="#DE4848"/>
</svg>
