<svg xmlns="http://www.w3.org/2000/svg" fill="currentColor" viewBox="0 0 24 24"><path fill="currentColor" d="M5.25 3A2.261 2.261 0 0 0 3 5.25v1.5A2.261 2.261 0 0 0 5.25 9h4a2.261 2.261 0 0 0 2.25-2.25v-1.5A2.261 2.261 0 0 0 9.25 3h-4Zm9.5 0a2.261 2.261 0 0 0-2.25 2.25v6.5A2.261 2.261 0 0 0 14.75 14h4A2.261 2.261 0 0 0 21 11.75v-6.5A2.261 2.261 0 0 0 18.75 3h-4Zm-9.5 1.5h4c.423 0 .75.327.75.75v1.5c0 .423-.327.75-.75.75h-4a.739.739 0 0 1-.75-.75v-1.5c0-.423.327-.75.75-.75Zm9.5 0h4c.423 0 .75.327.75.75v6.5c0 .423-.327.75-.75.75h-4a.739.739 0 0 1-.75-.75v-6.5c0-.423.327-.75.75-.75ZM5.25 10A2.261 2.261 0 0 0 3 12.25v6.5A2.261 2.261 0 0 0 5.25 21h4a2.261 2.261 0 0 0 2.25-2.25v-6.5A2.261 2.261 0 0 0 9.25 10h-4Zm0 1.5h4c.423 0 .75.327.75.75v6.5c0 .423-.327.75-.75.75h-4a.739.739 0 0 1-.75-.75v-6.5c0-.423.327-.75.75-.75Zm9.5 3.5a2.261 2.261 0 0 0-2.25 2.25v1.5A2.261 2.261 0 0 0 14.75 21h4A2.261 2.261 0 0 0 21 18.75v-1.5A2.261 2.261 0 0 0 18.75 15h-4Zm0 1.5h4c.423 0 .75.327.75.75v1.5c0 .423-.327.75-.75.75h-4a.739.739 0 0 1-.75-.75v-1.5c0-.423.327-.75.75-.75Z"/></svg>
