<svg xmlns="http://www.w3.org/2000/svg" fill="currentColor" viewBox="0 0 24 24"><path fill="currentColor"  d="M10 2.5c-4.406 0-8 3.594-8 8 0 1.305.347 2.495.862 3.534l-.824 2.979c-.141.422.023.907.299 1.166a1.202 1.202 0 0 0 1.113.294l3.017-.835c.314.159.638.295.97.413A7.931 7.931 0 0 0 14 21.5c1.245 0 2.444-.31 3.533-.862l3.017.835a1.202 1.202 0 0 0 1.113-.294c.276-.259.44-.744.299-1.166l-.825-2.979c.515-1.04.863-2.23.863-3.534 0-3.527-2.301-6.522-5.477-7.611C15.072 3.843 12.69 2.5 10 2.5ZM10 4c3.594 0 6.5 2.906 6.5 6.5S13.594 17 10 17c-1.13 0-2.198-.27-3.128-.8a.75.75 0 0 0-.572-.073l-2.665.738.738-2.665a.75.75 0 0 0-.066-.561A6.528 6.528 0 0 1 3.5 10.5C3.5 6.906 6.406 4 10 4Zm7.633 4.108C19.36 9.29 20.5 11.26 20.5 13.5a6.529 6.529 0 0 1-.808 3.139.75.75 0 0 0-.065.561l.738 2.665-2.665-.738a.749.749 0 0 0-.572.072C16.198 19.73 15.13 20 14 20a6.403 6.403 0 0 1-4.143-1.505c.048.001.095.005.143.005 4.406 0 8-3.594 8-8a7.95 7.95 0 0 0-.367-2.392Z"/></svg>
