<svg xmlns="http://www.w3.org/2000/svg" fill="none" viewBox="0 0 12 15"><path fill="currentColor" d="M5.695-.006a.5.5 0 0 0-.47.362l-.182.603-.479-.145a.5.5 0 0 0-.624.335L2.122 7.23a.5.5 0 0 0 .334.622l1.914.58a.5.5 0 0 0 .624-.335l.472-1.579c.287.294.714.484 1.2.484.514 0 .963-.211 1.25-.533.144-.162.248-.347.317-.542a3.658 3.658 0 0 1 2.434 3.45 3.657 3.657 0 0 1-3.664 3.663c-1.736 0-3.14-1.217-3.524-2.83l1.54.475a.498.498 0 0 0 .652-.525.5.5 0 0 0-.357-.431L.98 8.395a.5.5 0 1 0-.294.955l1.702.524a.5.5 0 0 0-.003.166 4.657 4.657 0 0 0 1.741 3H2.833a.499.499 0 1 0 0 1h8.334a.501.501 0 1 0 0-1h-1.29a4.655 4.655 0 0 0 1.79-3.665A4.67 4.67 0 0 0 8.27 4.887a1.632 1.632 0 0 0-.356-.687 1.663 1.663 0 0 0-1.248-.533c-.124 0-.244.013-.36.036l.505-1.687a.5.5 0 0 0-.334-.622L6 1.249l.182-.603a.5.5 0 0 0-.487-.652Zm-.94 1.923.4.12a.5.5 0 0 0 .155.048l.402.121L4.18 7.328l-.957-.29 1.531-5.121Zm1.912 2.75c.263 0 .398.081.5.197.09.1.147.246.16.4a.5.5 0 0 0 .004.096.714.714 0 0 1-.163.444c-.103.116-.238.197-.501.197-.264 0-.399-.081-.502-.197A.72.72 0 0 1 6 5.334a.72.72 0 0 1 .165-.47c.103-.116.238-.197.502-.197Z"/></svg>
