<svg xmlns="http://www.w3.org/2000/svg" fill="currentColor" viewBox="0 0 24 24"><path fill="currentColor" d="M12 1c-.822 0-1.5.426-2.001 1h-2.25a.75.75 0 0 0-.701 1.014l1.306 3.484c-1.44 1.15-6.03 5.261-5.824 10.94C2.623 19.98 4.737 22 7.278 22h9.444c2.54 0 4.655-2.02 4.748-4.563.206-5.678-4.384-9.789-5.825-10.939l1.307-3.484A.75.75 0 0 0 16.25 2H14c-.501-.574-1.178-1-2-1Zm0 1.5c.464 0 .854.25 1.074.627a.75.75 0 0 0 .649.373h1.445L14.23 6H9.77l-.938-2.5h1.445a.75.75 0 0 0 .649-.373c.22-.378.61-.627 1.074-.627Zm-2.492 5h4.984c.866.68 5.668 4.691 5.479 9.883a3.237 3.237 0 0 1-3.25 3.117H7.279a3.237 3.237 0 0 1-3.249-3.117C3.841 12.19 8.642 8.18 9.508 7.5Z"/></svg>
