<svg xmlns="http://www.w3.org/2000/svg" fill="none" viewBox="0 0 12 13"><path fill="currentColor" d="M1.833 0A1.842 1.842 0 0 0 0 1.833v7.334C0 10.173.827 11 1.833 11h2.17l1.657 1.534a.5.5 0 0 0 .677.002L8.027 11h2.14A1.842 1.842 0 0 0 12 9.167V1.833A1.842 1.842 0 0 0 10.167 0H1.833Zm0 1h8.334c.46 0 .833.373.833.833v7.334c0 .46-.373.833-.833.833H7.833a.5.5 0 0 0-.336.13l-1.494 1.358-1.463-1.355A.5.5 0 0 0 4.2 10H1.833A.833.833 0 0 1 1 9.167V1.833c0-.46.373-.833.833-.833ZM6 2.333a.667.667 0 1 0 0 1.334.667.667 0 0 0 0-1.334ZM5.992 4.66a.5.5 0 0 0-.492.507V8.5a.5.5 0 1 0 1 0V5.167a.5.5 0 0 0-.508-.507Z"/></svg>
