<svg  viewBox="0 0 114 108" fill="currentColor" xmlns="http://www.w3.org/2000/svg">
<path d="M16.5 0C15.9315 0 15.3722 0.0314414 14.8184 0.0878906C13.7144 0.200396 12.6426 0.423987 11.6133 0.744141C6.44166 2.35274 2.35274 6.44166 0.744141 11.6133C0.423987 12.6426 0.200396 13.7144 0.0878906 14.8184V14.8242C0.0318281 15.3762 0 15.9335 0 16.5V22.5V91.5C0 100.559 7.44068 108 16.5 108H97.5C106.559 108 114 100.559 114 91.5V22.5V16.5C114 15.9318 113.969 15.3724 113.912 14.8184C113.8 13.7144 113.576 12.6426 113.256 11.6133C111.647 6.44166 107.558 2.35274 102.387 0.744141C101.357 0.423987 100.286 0.200396 99.1816 0.0878906H99.1758C98.6236 0.0311816 98.0662 0 97.5 0H16.5ZM16.5 9C18.984 9 21 11.016 21 13.5C21 15.984 18.984 18 16.5 18C14.016 18 12 15.984 12 13.5C12 11.016 14.016 9 16.5 9ZM31.5 9C33.984 9 36 11.016 36 13.5C36 15.984 33.984 18 31.5 18C29.016 18 27 15.984 27 13.5C27 11.016 29.016 9 31.5 9ZM49.5 9H97.5C99.984 9 102 11.016 102 13.5C102 15.984 99.984 18 97.5 18H49.5C47.016 18 45 15.984 45 13.5C45 11.016 47.016 9 49.5 9ZM9 27H105V91.5C105 95.6947 101.695 99 97.5 99H16.5C12.3053 99 9 95.6947 9 91.5V27ZM18.75 45C16.68 45 15 46.68 15 48.75V65.25C15 67.32 16.68 69 18.75 69H31.5V77.25C31.5 79.32 33.18 81 35.25 81C37.32 81 39 79.32 39 77.25V48.75C39 46.68 37.32 45 35.25 45C33.18 45 31.5 46.68 31.5 48.75V61.5H22.5V48.75C22.5 46.68 20.82 45 18.75 45ZM57 45C49.557 45 43.5 51.057 43.5 58.5V67.5C43.5 74.943 49.557 81 57 81C64.443 81 70.5 74.943 70.5 67.5V58.5C70.5 51.057 64.443 45 57 45ZM78.75 45C76.68 45 75 46.68 75 48.75V65.25C75 67.32 76.68 69 78.75 69H91.5V77.25C91.5 79.32 93.18 81 95.25 81C97.32 81 99 79.32 99 77.25V48.75C99 46.68 97.32 45 95.25 45C93.18 45 91.5 46.68 91.5 48.75V61.5H82.5V48.75C82.5 46.68 80.82 45 78.75 45ZM57 52.5C60.309 52.5 63 55.191 63 58.5V67.5C63 70.809 60.309 73.5 57 73.5C53.691 73.5 51 70.809 51 67.5V58.5C51 55.191 53.691 52.5 57 52.5Z" fill="currentColor"/>
</svg>