<svg width="28" height="29" viewBox="0 0 28 29" fill="none" xmlns="http://www.w3.org/2000/svg">
    <path d="M22.9152 5.18377C22.7096 5.19286 22.5018 5.22697 22.2943 5.28859L4.20984 10.6639C3.10095 10.9943 2.33337 12.0225 2.33337 13.1807V15.8193C2.33337 16.9775 3.10095 18.0057 4.20984 18.3361L7.12423 19.202C6.86624 21.4124 8.14102 23.5739 10.344 24.2253C12.5421 24.8746 14.7818 23.7597 15.7705 21.7723L22.2932 23.7114C23.9534 24.2053 25.6667 22.9281 25.6667 21.1958V7.80421C25.6667 6.50522 24.7034 5.46184 23.5214 5.22934C23.3244 5.19059 23.1209 5.17467 22.9152 5.18377ZM23.0075 6.92693C23.5019 6.89642 23.9167 7.2719 23.9167 7.80421V21.1958C23.9167 21.805 23.3755 22.2079 22.7922 22.0344L4.70886 16.6579C4.33464 16.5456 4.08337 16.21 4.08337 15.8193V13.1807C4.08337 12.79 4.33464 12.4544 4.70886 12.3421L22.7922 6.96567C22.8651 6.94402 22.9369 6.93129 23.0075 6.92693ZM8.79903 19.6999L14.0957 21.2744C13.419 22.3588 12.1312 22.9286 10.8396 22.547C9.54518 22.1643 8.7737 20.9812 8.79903 19.6999Z" fill="white"/>
</svg>
