<svg  viewBox="0 0 24 24" fill="none"
     xmlns="http://www.w3.org/2000/svg">
    <path
            d="M20.4836 4.63033L19.3696 3.51733C18.8191 2.96683 17.9671 2.84283 17.2986 3.21633C17.2176 3.26183 17.1286 3.31483 17.0316 3.37333C16.5671 3.65283 15.9886 4.00083 15.2501 4.00083C13.5606 4.00083 12.4756 3.17083 12.4686 3.16533C12.1976 2.94833 11.8091 2.94833 11.5351 3.16233C11.5246 3.17083 10.4396 4.00083 8.75008 4.00083C7.99958 4.00083 7.35508 3.64983 6.83758 3.36783C6.71458 3.30133 6.60208 3.23983 6.49958 3.18883C5.78058 2.83033 4.91408 2.99733 4.38908 3.59533L3.45308 4.66833C2.93408 5.25933 2.87308 6.12833 3.30458 6.78133C3.60008 7.22933 4.50008 8.59333 4.50008 9.68083C4.50008 10.5443 4.29158 11.1718 4.05008 11.8983C3.79208 12.6733 3.50008 13.5513 3.50008 14.7513C3.50008 20.2683 11.4726 22.3978 11.8121 22.4858C11.8741 22.5018 11.9371 22.5098 12.0001 22.5098C12.0631 22.5098 12.1266 22.5018 12.1881 22.4858C12.5276 22.3978 20.5001 20.2683 20.5001 14.7513C20.5001 13.5513 20.2081 12.6733 19.9501 11.8983C19.7086 11.1718 19.5001 10.5443 19.5001 9.68083C19.5001 8.67233 20.3016 7.44983 20.7121 6.82333C21.1626 6.13533 21.0666 5.21333 20.4836 4.63033ZM16.2211 11.6673L14.2721 13.1573L15.0206 15.5813C15.1121 15.8768 15.0016 16.1968 14.7481 16.3733C14.6256 16.4588 14.4836 16.5008 14.3416 16.5008C14.1891 16.5008 14.0371 16.4518 13.9101 16.3548L12.0001 14.8943L10.0896 16.3548C9.84408 16.5428 9.50508 16.5498 9.25158 16.3733C8.99808 16.1968 8.88758 15.8763 8.97908 15.5813L9.72758 13.1573L7.77908 11.6673C7.53708 11.4823 7.44008 11.1638 7.53758 10.8753C7.63508 10.5868 7.90608 10.3928 8.21058 10.3928H10.5811L11.3211 7.99633C11.4131 7.69833 11.6881 7.49533 11.9996 7.49533C12.3111 7.49533 12.5866 7.69833 12.6781 7.99633L13.4181 10.3928H15.7891C16.0936 10.3928 16.3646 10.5868 16.4621 10.8753C16.5601 11.1638 16.4631 11.4828 16.2211 11.6673Z"
            fill="currentColor" />
</svg>
