<svg xmlns="http://www.w3.org/2000/svg" fill="currentColor" viewBox="0 0 24 24"><path fill="curretnColor"  d="M12 2C6.486 2 2 6.486 2 12s4.486 10 10 10 10-4.486 10-10S17.514 2 12 2Zm0 1.5c4.703 0 8.5 3.797 8.5 8.5 0 4.703-3.797 8.5-8.5 8.5A8.489 8.489 0 0 1 3.5 12c0-4.703 3.797-8.5 8.5-8.5Zm0 3c-1.65 0-3 1.35-3 3v.25a.75.75 0 1 0 1.5 0V9.5c0-.85.65-1.5 1.5-1.5s1.5.65 1.5 1.5c0 1.17-.307 1.322-.84 1.742-.266.21-.614.452-.913.858-.299.405-.497.972-.497 1.65a.751.751 0 1 0 1.5 0c0-.422.083-.593.206-.76.123-.168.338-.337.634-.57.592-.467 1.41-1.34 1.41-2.92 0-1.65-1.35-3-3-3Zm0 9.5a1 1 0 1 0 0 2 1 1 0 0 0 0-2Z"/></svg>
