<svg xmlns="http://www.w3.org/2000/svg" fill="none" viewBox="0 0 14 14"><path fill="currentColor" d="M2.5.668A2.17 2.17 0 0 0 .333 2.835v6.333A2.17 2.17 0 0 0 2.5 11.335H3v1.833a.834.834 0 0 0 .833.833.835.835 0 0 0 .5-.166l3.334-2.5H11.5a2.17 2.17 0 0 0 2.167-2.167V2.835A2.17 2.17 0 0 0 11.5.668h-9Zm0 1h9c.643 0 1.167.523 1.167 1.167v6.333c0 .643-.524 1.167-1.167 1.167h-4a.515.515 0 0 0-.3.1l-3.2 2.4v-2a.5.5 0 0 0-.5-.5h-1a1.168 1.168 0 0 1-1.167-1.167V2.835c0-.644.524-1.167 1.167-1.167Zm6.834 2c-.929 0-1.73.546-2.105 1.333H3.667a1 1 0 1 0 0 2h3.562a2.334 2.334 0 0 0 2.105 1.334c.828 0 1.602-.447 2.018-1.166a.333.333 0 0 0-.288-.501H9.667a.667.667 0 0 1 0-1.333h1.397a.332.332 0 0 0 .288-.501 2.342 2.342 0 0 0-2.018-1.166Z"/></svg>
