<svg width="19" height="19" viewBox="0 0 19 19" fill="none" xmlns="http://www.w3.org/2000/svg">
<path d="M4.73843 0.98924C4.70209 0.990189 4.66586 0.993779 4.63004 0.999982H2.75015C1.24027 0.999982 0.000153767 2.24009 0.000153767 3.74998V5.62694C-0.0130721 5.70745 -0.0130721 5.78958 0.000153767 5.8701V16.25C0.000153767 17.7599 1.24027 19 2.75015 19H4.62711C4.70762 19.0132 4.78975 19.0132 4.87027 19H15.2502C16.76 19 18.0002 17.7599 18.0002 16.25V5.87303C18.0134 5.79251 18.0134 5.71038 18.0002 5.62986V3.74998C18.0002 2.24009 16.76 0.999982 15.2502 0.999982H4.8732C4.82869 0.992352 4.78359 0.988757 4.73843 0.98924ZM2.75015 2.49998H4.00015V4.99998H1.50015V3.74998C1.50015 3.05087 2.05104 2.49998 2.75015 2.49998ZM5.50015 2.49998H15.2502C15.9493 2.49998 16.5002 3.05087 16.5002 3.74998V4.99998H5.50015V2.49998ZM1.50015 6.49998H4.00015V17.5H2.75015C2.05104 17.5 1.50015 16.9491 1.50015 16.25V6.49998ZM5.50015 6.49998H16.5002V16.25C16.5002 16.9491 15.9493 17.5 15.2502 17.5H5.50015V6.49998ZM14.7355 8.99315C14.5407 8.99882 14.3558 9.08008 14.2199 9.21971L11.2502 12.1894L10.2804 11.2197C10.1398 11.0791 9.94903 11.0001 9.75015 11.0001C9.55127 11.0001 9.36054 11.0791 9.21988 11.2197L6.71988 13.7197C6.6479 13.7888 6.59044 13.8716 6.55085 13.9632C6.51126 14.0548 6.49035 14.1534 6.48933 14.2531C6.48832 14.3529 6.50722 14.4519 6.54494 14.5443C6.58266 14.6367 6.63843 14.7206 6.70899 14.7911C6.77954 14.8617 6.86347 14.9175 6.95585 14.9552C7.04824 14.9929 7.14722 15.0118 7.24699 15.0108C7.34677 15.0098 7.44535 14.9889 7.53694 14.9493C7.62854 14.9097 7.71132 14.8522 7.78043 14.7803L9.75015 12.8105L10.7199 13.7803C10.8605 13.9209 11.0513 13.9998 11.2502 13.9998C11.449 13.9998 11.6398 13.9209 11.7804 13.7803L15.2804 10.2803C15.3886 10.1749 15.4625 10.0393 15.4924 9.89124C15.5222 9.74318 15.5067 9.58956 15.4478 9.45048C15.3889 9.3114 15.2894 9.19333 15.1623 9.11173C15.0352 9.03013 14.8865 8.9888 14.7355 8.99315Z" fill="currentColor"/>
</svg>
