<svg xmlns="http://www.w3.org/2000/svg" fill="currentColor" viewBox="0 0 21 20"><path fill="currentColor" d="M15.285 1.66a.625.625 0 0 0-.435 1.074l1.433 1.433H4.875a2.296 2.296 0 0 0-2.292 2.291v6.726l1.25-1.25V6.458c0-.575.467-1.041 1.042-1.041h11.408L14.85 6.85a.625.625 0 1 0 .883.884l2.5-2.5a.625.625 0 0 0 0-.884l-2.5-2.5a.626.626 0 0 0-.448-.19Zm3.132 5.156-1.25 1.25v5.476c0 .575-.467 1.041-1.042 1.041H4.717L6.15 13.15a.625.625 0 1 0-.884-.884l-2.5 2.5a.625.625 0 0 0 0 .884l2.5 2.5a.625.625 0 1 0 .884-.884l-1.433-1.433h11.408a2.296 2.296 0 0 0 2.292-2.291V6.816Z"/></svg>
