<svg xmlns="http://www.w3.org/2000/svg" fill="currentColor" viewBox="0 0 24 24"><g clip-path="url(#a)"><g clip-path="url(#b)"><path fill="currentColor" d="M11.988 2.99a.751.751 0 0 0-.108.01H7.644a3.26 3.26 0 0 0-3.226 2.858l-1.394 11.5C2.791 19.282 4.314 21 6.251 21H17.75c1.937 0 3.459-1.718 3.226-3.642l-1.394-11.5A3.258 3.258 0 0 0 16.355 3h-4.232a.75.75 0 0 0-.135-.01ZM7.644 4.5h3.606v1.25a.75.75 0 1 0 1.5 0V4.5h3.605c.892 0 1.63.655 1.738 1.54l1.394 11.5a1.736 1.736 0 0 1-1.737 1.96h-5v-4.25a.75.75 0 1 0-1.5 0v4.25h-5a1.737 1.737 0 0 1-1.737-1.96l1.394-11.5A1.74 1.74 0 0 1 7.644 4.5Zm4.344 3.49a.75.75 0 0 0-.738.76v3a.75.75 0 1 0 1.5 0v-3a.749.749 0 0 0-.762-.76Z"/></g></g><defs><clipPath id="a"><path fill="#fff" d="M0 0h24v24H0z"/></clipPath><clipPath id="b"><path fill="#fff" d="M0 0h24v24H0z"/></clipPath></defs></svg>
