<svg xmlns="http://www.w3.org/2000/svg" fill="currentColor" viewBox="0 0 24 24"><path fill="currentColor" d="M7.238 2.99a.75.75 0 0 0-.11.01H5.75C4.24 3 3 4.24 3 5.75v12.5C3 19.76 4.24 21 5.75 21h.877c.08.013.163.013.243 0h10.257c.08.013.163.013.243 0h.88c1.51 0 2.75-1.24 2.75-2.75V7.75a.75.75 0 0 0-.252-.56l-4.5-4A.75.75 0 0 0 15.75 3h-.377a.75.75 0 0 0-.243 0H7.373a.75.75 0 0 0-.135-.01ZM5.75 4.5h.75v2.75C6.5 8.208 7.293 9 8.25 9h6C15.207 9 16 8.208 16 7.25V4.976l3.5 3.111V18.25c0 .7-.55 1.25-1.25 1.25H18v-5.75c0-.957-.793-1.75-1.75-1.75h-8.5C6.793 12 6 12.793 6 13.75v5.75h-.25c-.7 0-1.25-.55-1.25-1.25V5.75c0-.7.55-1.25 1.25-1.25ZM8 4.5h6.5v2.75c0 .148-.102.25-.25.25h-6A.239.239 0 0 1 8 7.25V4.5Zm-.25 9h8.5c.148 0 .25.102.25.25v5.75h-9v-5.75c0-.148.102-.25.25-.25Z"/></svg>
