<svg width="20" height="20" viewBox="0 0 20 20" fill="none" xmlns="http://www.w3.org/2000/svg">
    <path d="M3.35416 0.833321C1.97009 0.833321 0.833323 1.97009 0.833323 3.35415V6.56249C0.832034 6.65359 0.848865 6.74404 0.882837 6.82858C0.916809 6.91312 0.967245 6.99007 1.03121 7.05494C1.09518 7.11982 1.17141 7.17134 1.25546 7.20651C1.33951 7.24167 1.42971 7.25978 1.52082 7.25978C1.61193 7.25978 1.70214 7.24167 1.78619 7.20651C1.87024 7.17134 1.94646 7.11982 2.01043 7.05494C2.0744 6.99007 2.12484 6.91312 2.15881 6.82858C2.19278 6.74404 2.20961 6.65359 2.20832 6.56249V3.35415C2.20832 2.7133 2.7133 2.20832 3.35416 2.20832H6.56249C6.65359 2.20961 6.74404 2.19278 6.82858 2.15881C6.91312 2.12483 6.99007 2.0744 7.05495 2.01043C7.11983 1.94646 7.17134 1.87024 7.20651 1.78619C7.24167 1.70213 7.25978 1.61193 7.25978 1.52082C7.25978 1.42971 7.24167 1.33951 7.20651 1.25546C7.17134 1.1714 7.11983 1.09518 7.05495 1.03121C6.99007 0.967243 6.91312 0.916807 6.82858 0.882835C6.74404 0.848863 6.65359 0.832032 6.56249 0.833321H3.35416ZM13.4375 0.833321C13.3464 0.832032 13.2559 0.848863 13.1714 0.882835C13.0869 0.916807 13.0099 0.967243 12.945 1.03121C12.8802 1.09518 12.8286 1.1714 12.7935 1.25546C12.7583 1.33951 12.7402 1.42971 12.7402 1.52082C12.7402 1.61193 12.7583 1.70213 12.7935 1.78619C12.8286 1.87024 12.8802 1.94646 12.945 2.01043C13.0099 2.0744 13.0869 2.12483 13.1714 2.15881C13.2559 2.19278 13.3464 2.20961 13.4375 2.20832H16.6458C17.2867 2.20832 17.7917 2.7133 17.7917 3.35415V6.56249C17.7904 6.65359 17.8072 6.74404 17.8412 6.82858C17.8751 6.91312 17.9256 6.99007 17.9895 7.05494C18.0535 7.11982 18.1297 7.17134 18.2138 7.20651C18.2978 7.24167 18.388 7.25978 18.4792 7.25978C18.5703 7.25978 18.6605 7.24167 18.7445 7.20651C18.8286 7.17134 18.9048 7.11982 18.9688 7.05494C19.0327 6.99007 19.0832 6.91312 19.1171 6.82858C19.1511 6.74404 19.1679 6.65359 19.1667 6.56249V3.35415C19.1667 1.97009 18.0299 0.833321 16.6458 0.833321H13.4375ZM1.51008 12.7401C1.3279 12.743 1.1543 12.818 1.02741 12.9488C0.900515 13.0795 0.830709 13.2553 0.833323 13.4375V16.6458C0.833323 18.0299 1.97009 19.1667 3.35416 19.1667H6.56249C6.65359 19.1679 6.74404 19.1511 6.82858 19.1171C6.91312 19.0832 6.99007 19.0327 7.05495 18.9688C7.11983 18.9048 7.17134 18.8286 7.20651 18.7445C7.24167 18.6605 7.25978 18.5703 7.25978 18.4792C7.25978 18.388 7.24167 18.2978 7.20651 18.2138C7.17134 18.1297 7.11983 18.0535 7.05495 17.9895C6.99007 17.9256 6.91312 17.8751 6.82858 17.8412C6.74404 17.8072 6.65359 17.7904 6.56249 17.7917H3.35416C2.7133 17.7917 2.20832 17.2867 2.20832 16.6458V13.4375C2.20964 13.3455 2.19248 13.2541 2.15784 13.1689C2.12321 13.0836 2.07181 13.0062 2.0067 12.9411C1.94158 12.8761 1.86408 12.8248 1.77877 12.7903C1.69346 12.7558 1.6021 12.7387 1.51008 12.7401ZM18.4684 12.7401C18.2862 12.743 18.1126 12.818 17.9857 12.9488C17.8588 13.0795 17.789 13.2553 17.7917 13.4375V16.6458C17.7917 17.2867 17.2867 17.7917 16.6458 17.7917H13.4375C13.3464 17.7904 13.2559 17.8072 13.1714 17.8412C13.0869 17.8751 13.0099 17.9256 12.945 17.9895C12.8802 18.0535 12.8286 18.1297 12.7935 18.2138C12.7583 18.2978 12.7402 18.388 12.7402 18.4792C12.7402 18.5703 12.7583 18.6605 12.7935 18.7445C12.8286 18.8286 12.8802 18.9048 12.945 18.9688C13.0099 19.0327 13.0869 19.0832 13.1714 19.1171C13.2559 19.1511 13.3464 19.1679 13.4375 19.1667H16.6458C18.0299 19.1667 19.1667 18.0299 19.1667 16.6458V13.4375C19.168 13.3455 19.1508 13.2541 19.1162 13.1689C19.0815 13.0836 19.0301 13.0062 18.965 12.9411C18.8999 12.8761 18.8224 12.8248 18.7371 12.7903C18.6518 12.7558 18.5604 12.7387 18.4684 12.7401Z" fill="black"/>
</svg>
