<svg xmlns="http://www.w3.org/2000/svg" fill="none" viewBox="0 0 20 20"><path fill="currentColor" d="M3.25 0C1.74 0 .5 1.24.5 2.75v1.5c0 .785.337 1.495.871 1.998A2.74 2.74 0 0 0 .5 8.25v1.5c0 .788.335 1.498.868 2a2.741 2.741 0 0 0-.868 2v1.5A2.753 2.753 0 0 0 3.25 18h7.759a5.011 5.011 0 0 1-1.334-1.5H3.25c-.689 0-1.25-.56-1.25-1.25v-1.5c0-.69.561-1.25 1.25-1.25h5.98a4.98 4.98 0 0 1 .777-1.5H3.25C2.561 11 2 10.44 2 9.75v-1.5C2 7.56 2.561 7 3.25 7h11.5c.689 0 1.25.56 1.25 1.25v1.169a4.999 4.999 0 0 1 1.428.948c.046-.199.072-.405.072-.617v-1.5c0-.79-.337-1.5-.871-2.002A2.741 2.741 0 0 0 17.5 4.25v-1.5C17.5 1.24 16.26 0 14.75 0H3.25Zm0 1.5h11.5c.7 0 1.25.55 1.25 1.25v1.5c0 .7-.55 1.25-1.25 1.25H3.25C2.55 5.5 2 4.95 2 4.25v-1.5c0-.7.55-1.25 1.25-1.25ZM14 10c-2.206 0-4 1.794-4 4s1.794 4 4 4c.832 0 1.605-.256 2.246-.693l2.474 2.473a.747.747 0 0 0 1.06 0 .75.75 0 0 0 0-1.06l-2.472-2.474A3.976 3.976 0 0 0 18 14c0-2.206-1.794-4-4-4Zm0 1.5c1.379 0 2.5 1.121 2.5 2.5s-1.121 2.5-2.5 2.5a2.503 2.503 0 0 1-2.5-2.5c0-1.379 1.121-2.5 2.5-2.5Z"/></svg>
