<svg xmlns="http://www.w3.org/2000/svg" fill="none" viewBox="0 0 14 14"><path fill="currentColor" d="M7 .333a6.88 6.88 0 0 0-1.512.18.5.5 0 0 0-.385.436l-.098.949c-.047.324-.24.624-.49.77a1.056 1.056 0 0 1-.912.042l-.9-.4a.5.5 0 0 0-.566.113A6.403 6.403 0 0 0 .62 5.063a.5.5 0 0 0 .192.545l.8.567a.464.464 0 0 0 .011.008c.24.16.378.46.378.784 0 .3-.17.63-.393.794l-.796.565a.5.5 0 0 0-.192.544c.291 1.02.838 1.889 1.51 2.632a.5.5 0 0 0 .574.122l.9-.4a.163.163 0 0 0 .006-.003c.282-.13.61-.114.92.053a.898.898 0 0 1 .474.744l.1.967a.5.5 0 0 0 .392.438c.49.104.99.177 1.505.177a6.88 6.88 0 0 0 1.512-.18.5.5 0 0 0 .385-.432l.098-.884c.046-.325.24-.626.49-.772.25-.146.633-.17.906-.045l.006.003.9.4a.5.5 0 0 0 .566-.112 6.403 6.403 0 0 0 1.518-2.64.5.5 0 0 0-.192-.546l-.8-.566a.451.451 0 0 0-.011-.009c-.24-.16-.378-.46-.378-.784 0-.3.17-.63.393-.794l.796-.564a.5.5 0 0 0 .192-.545c-.292-1.02-.838-1.888-1.51-2.632a.5.5 0 0 0-.574-.122l-.9.4-.006.003c-.282.13-.61.114-.92-.052a.898.898 0 0 1-.474-.742l-.1-1.033a.5.5 0 0 0-.393-.44A7.169 7.169 0 0 0 7 .332Zm0 1c.304 0 .623.06.94.114l.061.622c.046.634.41 1.223.995 1.538.557.3 1.228.35 1.813.08l.53-.235c.407.496.727 1.04.945 1.639l-.473.334-.005.004c-.51.37-.806.97-.806 1.604 0 .61.263 1.243.823 1.616l.461.328a5.377 5.377 0 0 1-.942 1.639l-.539-.24.006.004a1.985 1.985 0 0 0-1.828.088c-.55.32-.889.886-.976 1.495l-.002.015-.056.509c-.315.054-.639.113-.947.113-.305 0-.625-.059-.943-.113l-.058-.556a1.902 1.902 0 0 0-.995-1.538c-.557-.3-1.228-.35-1.813-.08l-.53.235a5.586 5.586 0 0 1-.945-1.638l.473-.335A1.982 1.982 0 0 0 3 6.967c0-.61-.263-1.243-.823-1.616l-.462-.328c.22-.609.541-1.16.943-1.639l.539.24-.006-.004a1.985 1.985 0 0 0 1.828-.088c.549-.32.889-.886.976-1.495a.5.5 0 0 0 .002-.019l.06-.572c.313-.054.636-.113.943-.113Zm0 3A2.674 2.674 0 0 0 4.333 7c0 1.467 1.2 2.667 2.667 2.667 1.467 0 2.667-1.2 2.667-2.667 0-1.467-1.2-2.667-2.667-2.667Zm0 1c.926 0 1.667.74 1.667 1.667A1.66 1.66 0 0 1 7 8.667 1.66 1.66 0 0 1 5.333 7c0-.926.74-1.667 1.667-1.667Z"/></svg>
