<svg xmlns="http://www.w3.org/2000/svg"  fill="none" viewBox="0 0 24 24"><path  d="M0 0h24v24H0z"/><path fill="currentColor" d="M1.75 3a.75.75 0 1 0 0 1.5h1.4c.343 0 .637.236.716.607l-.003-.02.149.796v.006l1.598 8.434C5.87 15.886 7.246 17 8.8 17h9.4c1.554 0 2.867-1.126 3.184-2.648l.003-.012 1.6-8.45A.75.75 0 0 0 22.25 5H5.372l-.035-.189a.737.737 0 0 0-.004-.018C5.113 3.763 4.207 3 3.15 3h-1.4Zm3.905 3.5h15.69l-1.429 7.547h-.001c-.183.878-.87 1.453-1.715 1.453H8.8c-.846 0-1.57-.586-1.71-1.423a.74.74 0 0 0-.003-.017L5.655 6.5ZM10 18a1.5 1.5 0 1 0 0 3 1.5 1.5 0 0 0 0-3Zm7 0a1.5 1.5 0 1 0 0 3 1.5 1.5 0 0 0 0-3Z"/></svg>
