<svg xmlns="http://www.w3.org/2000/svg" fill="currentColor" viewBox="0 0 24 24"><path fill="currentColor"  d="M3.75 2.5A2.261 2.261 0 0 0 1.5 4.75v1C1.5 6.432 2.068 7 2.75 7H4.5v11.25a3.262 3.262 0 0 0 3.25 3.25h12.5a.746.746 0 0 0 .123-.013A2.256 2.256 0 0 0 22.5 19.25v-1c0-.682-.568-1.25-1.25-1.25H19.5V4.75a2.261 2.261 0 0 0-2.25-2.25H3.75Zm0 1.5h11.403a2.19 2.19 0 0 0-.153.75v.75H5.373a.75.75 0 0 0-.243 0H3v-.75c0-.423.327-.75.75-.75Zm13.5 0c.423 0 .75.327.75.75v12.877a.751.751 0 0 0 0 .243v1.38c0 .265.067.513.153.75H7.75A1.74 1.74 0 0 1 6 18.25V7h9.25c.682 0 1.25-.568 1.25-1.25v-1c0-.423.327-.75.75-.75Zm-8.5 5a.75.75 0 1 0 0 1.5h6.5a.751.751 0 1 0 0-1.5h-6.5Zm0 3.5a.751.751 0 1 0 0 1.5h6.5a.751.751 0 1 0 0-1.5h-6.5Zm0 3.5a.751.751 0 1 0 0 1.5h6.5a.751.751 0 1 0 0-1.5h-6.5Zm10.75 2.5H21v.75c0 .423-.327.75-.75.75a.739.739 0 0 1-.75-.75v-.75Z"/></svg>
