<svg xmlns="http://www.w3.org/2000/svg" fill="none" viewBox="0 0 18 22"><path fill="currentColor" d="M9 .5C4.5.5.75 3.881.75 9.125c0 2.656.93 5.269 2.424 7.27l-.765 1.641a1.538 1.538 0 0 0 .737 2.024h.001c3.742 1.754 8.326 1.773 11.774.005a1.535 1.535 0 0 0 .686-2l-.78-1.672c1.493-2.002 2.423-4.612 2.423-7.268C17.25 3.881 13.5.5 9 .5ZM9 2c3.783 0 6.75 2.566 6.75 7.125 0 2.46-.93 4.98-2.36 6.727a.752.752 0 0 0-.1.793l.958 2.054c.008.018.009.02-.012.03-2.951 1.515-7.142 1.524-10.452-.027-.026-.012-.024-.014-.015-.032l.942-2.024a.75.75 0 0 0-.1-.792C3.18 14.108 2.25 11.585 2.25 9.125 2.25 4.566 5.217 2 9 2ZM5.75 6.5C4.135 6.5 3 7.556 3 8.75S4.135 11 5.75 11 8.5 9.944 8.5 8.75 7.365 6.5 5.75 6.5Zm6.5 0c-1.615 0-2.75 1.056-2.75 2.25S10.635 11 12.25 11 15 9.944 15 8.75 13.865 6.5 12.25 6.5ZM5.75 8C6.802 8 7 8.444 7 8.75s-.198.75-1.25.75-1.25-.444-1.25-.75S4.698 8 5.75 8Zm6.5 0c1.052 0 1.25.444 1.25.75s-.198.75-1.25.75S11 9.056 11 8.75 11.198 8 12.25 8ZM9 11.5c-.907 0-1.741.26-2.386.73-.644.468-1.114 1.19-1.114 2.02 0 .83.47 1.552 1.114 2.02.645.47 1.48.73 2.386.73.907 0 1.741-.26 2.386-.73.644-.468 1.114-1.19 1.114-2.02 0-.83-.47-1.552-1.114-2.02-.645-.47-1.48-.73-2.386-.73ZM9 13c.612 0 1.152.187 1.503.442.35.256.497.534.497.808s-.146.552-.497.808c-.351.255-.891.442-1.503.442-.612 0-1.152-.187-1.503-.442-.35-.256-.497-.534-.497-.808s.146-.552.497-.808C7.848 13.187 8.388 13 9 13Z"/></svg>
