<svg  viewBox="0 0 25 25" fill="none"
     xmlns="http://www.w3.org/2000/svg">
    <path
            d="M15.8853 3.12516H15.4399C14.6061 2.4512 13.5738 2.0835 12.4998 2.0835C11.4259 2.0835 10.3936 2.4512 9.55973 3.12516H9.11442C7.24775 3.12516 5.729 4.64391 5.729 6.51058V18.4897C5.729 20.3564 7.24775 21.8752 9.11442 21.8752H9.55973C10.3936 22.5491 11.4259 22.9168 12.4998 22.9168C13.5738 22.9168 14.6061 22.5491 15.4399 21.8752H15.8853C17.7519 21.8752 19.2707 20.3564 19.2707 18.4897V6.51058C19.2707 4.64391 17.7519 3.12516 15.8853 3.12516ZM12.4998 19.271C11.6368 19.271 10.9373 18.5715 10.9373 17.7085C10.9373 16.8455 11.6368 16.146 12.4998 16.146C13.3629 16.146 14.0623 16.8455 14.0623 17.7085C14.0623 18.5715 13.3629 19.271 12.4998 19.271ZM12.4998 14.0627C11.6368 14.0627 10.9373 13.3632 10.9373 12.5002C10.9373 11.6371 11.6368 10.9377 12.4998 10.9377C13.3629 10.9377 14.0623 11.6371 14.0623 12.5002C14.0623 13.3632 13.3629 14.0627 12.4998 14.0627ZM12.4998 8.85433C11.6368 8.85433 10.9373 8.15485 10.9373 7.29183C10.9373 6.42881 11.6368 5.72933 12.4998 5.72933C13.3629 5.72933 14.0623 6.42881 14.0623 7.29183C14.0623 8.15485 13.3629 8.85433 12.4998 8.85433Z"
            fill="currentColor" />
</svg>
