<svg xmlns="http://www.w3.org/2000/svg" fill="none" viewBox="0 0 20 18"><path fill="currentColor" d="M10 0c-.938 0-1.736.379-2.248.955C7.239 1.532 7 2.271 7 3c0 .73.24 1.468.752 2.045C8.264 5.62 9.062 6 10 6c.938 0 1.736-.379 2.248-.955C12.761 4.468 13 3.729 13 3c0-.73-.24-1.468-.752-2.045C11.736.38 10.938 0 10 0ZM3.5 1c-.77 0-1.444.316-1.873.799A2.547 2.547 0 0 0 1 3.5c0 .604.198 1.218.627 1.701C2.057 5.684 2.729 6 3.5 6c.77 0 1.444-.316 1.873-.799C5.803 4.718 6 4.104 6 3.5c0-.604-.198-1.218-.627-1.701C4.943 1.316 4.271 1 3.5 1Zm13 0c-.77 0-1.444.316-1.873.799A2.547 2.547 0 0 0 14 3.5c0 .604.198 1.218.627 1.701.43.483 1.102.799 1.873.799.77 0 1.444-.316 1.873-.799.43-.483.627-1.097.627-1.701 0-.604-.198-1.218-.627-1.701C17.943 1.316 17.271 1 16.5 1Zm-6.5.5c.563 0 .89.184 1.127.451S11.5 2.604 11.5 3c0 .396-.136.782-.373 1.049-.238.267-.565.451-1.127.451-.563 0-.89-.184-1.127-.451S8.5 3.396 8.5 3c0-.396.136-.782.373-1.049.238-.267.565-.451 1.127-.451Zm-6.5 1c.396 0 .598.121.752.295.154.173.248.434.248.705 0 .27-.094.532-.248.705-.154.174-.356.295-.752.295s-.598-.121-.752-.295A1.08 1.08 0 0 1 2.5 3.5c0-.27.094-.532.248-.705.154-.174.356-.295.752-.295Zm13 0c.396 0 .598.121.752.295.154.173.248.434.248.705 0 .27-.094.532-.248.705-.154.174-.356.295-.752.295s-.598-.121-.752-.295A1.08 1.08 0 0 1 15.5 3.5c0-.27.094-.532.248-.705.154-.174.356-.295.752-.295ZM1.75 7C.8 7 0 7.8 0 8.75V12c0 2.2 1.8 4 4 4 .35 0 .7-.05 1.05-.15-.2-.45-.35-.95-.45-1.45-.2.1-.4.1-.6.1-1.4 0-2.5-1.1-2.5-2.5V8.75c0-.15.1-.25.25-.25H4.5c.05-.55.25-1.1.6-1.5H1.75Zm5.5 0c-.96 0-1.75.79-1.75 1.75v4.75c0 2.465 2.035 4.5 4.5 4.5s4.5-2.035 4.5-4.5V8.75c0-.96-.79-1.75-1.75-1.75h-5.5Zm7.6 0c.35.4.55.95.6 1.5h2.75c.15 0 .25.1.25.25V12c0 1.4-1.1 2.5-2.5 2.5-.2 0-.4 0-.6-.05-.1.5-.25 1-.45 1.45.35.1.7.15 1.05.15 2.2 0 4-1.8 4-4V8.8c.05-1-.75-1.8-1.7-1.8h-3.4Zm-7.6 1.5h5.5c.14 0 .25.11.25.25v4.75c0 1.635-1.365 3-3 3s-3-1.365-3-3V8.75c0-.14.11-.25.25-.25Z"/></svg>
