<svg xmlns="http://www.w3.org/2000/svg" fill="none" viewBox="0 0 22 21"><path fill="currentColor" d="M8 0C5.247 0 3 2.247 3 5s2.247 5 5 5c2.752 0 5-2.247 5-5s-2.248-5-5-5Zm0 1.5c1.942 0 3.5 1.558 3.5 3.5S9.942 8.5 8 8.5A3.489 3.489 0 0 1 4.5 5c0-1.942 1.558-3.5 3.5-3.5Zm8.5 8.5c-.294 0-.58.025-.861.072l-.173.716a2 2 0 0 1-2.51 1.45l-.604-.18a5.55 5.55 0 0 0-.852 1.57l.447.43a2 2 0 0 1 0 2.883l-.447.43c.2.574.49 1.103.852 1.57l.603-.178a2 2 0 0 1 2.51 1.449l.174.716a5.156 5.156 0 0 0 1.722 0l.173-.716a2 2 0 0 1 2.51-1.45l.604.18a5.55 5.55 0 0 0 .852-1.57l-.447-.43a2 2 0 0 1 0-2.883l.447-.43a5.545 5.545 0 0 0-.852-1.57l-.603.178a2 2 0 0 1-2.51-1.449l-.174-.716A5.152 5.152 0 0 0 16.5 10ZM2.361 12C1.335 12 .5 12.892.5 13.99v.76c0 1.64.848 3.066 2.388 4.014C4.183 19.56 5.91 20 7.75 20c1.275 0 2.492-.215 3.552-.61a6.488 6.488 0 0 1-.769-1.314 9.099 9.099 0 0 1-2.783.424C4.98 18.5 2 17.326 2 14.75v-.76c0-.266.166-.49.361-.49h7.956a6.446 6.446 0 0 1 .712-1.5H2.361ZM16.5 14a1.5 1.5 0 1 1 0 3 1.5 1.5 0 0 1 0-3Z"/></svg>
